<?xml version="1.0" encoding="UTF-8"?>
<svg id="Layer_2" xmlns="http://www.w3.org/2000/svg" viewBox="0 0 952.95 390.73">
  <defs>
    <style>
      .cls-1 {
        fill: #ffb004;
      }

      .cls-2 {
        fill: #fff;
      }
    </style>
  </defs>
  <g id="Layer_1-2" data-name="Layer_1">
    <g>
      <g>
        <path class="cls-1" d="M576.59,356.21c-3.44,0-6.87-.91-9.94-2.64l-90.18-50.78-90.18,50.78c-3.07,1.73-6.5,2.64-9.94,2.64-6.01,0-11.89-2.81-15.74-7.51-3.83-4.68-5.34-10.8-4.13-16.79l20.43-101.46-76.16-70.07c-5.9-5.43-8.03-13.55-5.55-21.18s8.97-12.94,16.94-13.87l102.8-11.92,43.11-94.09c3.34-7.29,10.4-11.82,18.42-11.82s15.08,4.53,18.42,11.82l43.11,94.09,102.8,11.92c7.97.92,14.46,6.24,16.94,13.87,2.48,7.63.35,15.74-5.55,21.18l-76.16,70.07,20.43,101.46c1.21,5.99-.3,12.11-4.13,16.79-3.85,4.7-9.74,7.51-15.74,7.51Z"/>
        <path class="cls-2" d="M476.47,15c4.67,0,9.33,2.48,11.61,7.45l44.87,97.93,107,12.41c10.85,1.26,15.21,14.68,7.17,22.08l-79.27,72.93,21.26,105.6c1.69,8.4-4.97,15.32-12.52,15.32-2.07,0-4.21-.52-6.26-1.68l-93.86-52.85-93.86,52.85c-2.05,1.15-4.19,1.68-6.26,1.68-7.55,0-14.21-6.92-12.52-15.32l21.26-105.6-79.27-72.93c-8.04-7.4-3.68-20.82,7.17-22.08l107-12.41,44.87-97.93c2.28-4.97,6.94-7.45,11.61-7.45M476.47,0c-10.99,0-20.66,6.21-25.24,16.2l-41.35,90.25-98.61,11.44c-10.92,1.27-19.81,8.55-23.21,19-3.4,10.45-.48,21.57,7.61,29.01l73.05,67.21-19.59,97.32c-1.65,8.2.42,16.59,5.68,23.02,5.34,6.52,13.19,10.26,21.54,10.26,4.72,0,9.43-1.25,13.62-3.61l86.5-48.71,86.5,48.71c4.19,2.36,8.9,3.61,13.62,3.61,8.35,0,16.21-3.74,21.54-10.26,5.26-6.43,7.33-14.82,5.68-23.02l-19.59-97.32,73.05-67.21c8.09-7.44,11-18.56,7.61-29.01-3.4-10.45-12.29-17.73-23.21-19l-98.61-11.44-41.35-90.25c-4.58-9.99-14.25-16.2-25.24-16.2h0Z"/>
      </g>
      <g>
        <path class="cls-1" d="M223.63,383.23c-2.92,0-5.83-.77-8.43-2.24l-67.55-38.03-67.55,38.03c-2.6,1.46-5.51,2.24-8.43,2.24-5.17,0-10.03-2.32-13.35-6.36-3.25-3.97-4.53-9.16-3.51-14.24l15.3-75.99-57.05-52.49c-5.01-4.61-6.81-11.49-4.71-17.96,2.1-6.47,7.61-10.98,14.37-11.76l77-8.93,32.29-70.47c2.83-6.19,8.82-10.03,15.63-10.03s12.79,3.84,15.63,10.03l32.29,70.47,77,8.93c6.76.78,12.26,5.29,14.37,11.76,2.1,6.47.3,13.35-4.71,17.96l-57.04,52.49,15.3,75.99c1.02,5.08-.26,10.27-3.51,14.24-3.31,4.04-8.18,6.37-13.35,6.37Z"/>
        <path class="cls-2" d="M147.65,122.49c3.54,0,7.08,1.88,8.81,5.65l34.05,74.31,81.2,9.42c8.23.96,11.54,11.14,5.44,16.75l-60.15,55.35,16.13,80.13c1.28,6.38-3.77,11.62-9.5,11.62-1.57,0-3.19-.4-4.75-1.27l-71.23-40.11-71.23,40.11c-1.56.88-3.18,1.27-4.75,1.27-5.73,0-10.78-5.25-9.5-11.62l16.13-80.13-60.15-55.35c-6.1-5.61-2.79-15.8,5.44-16.75l81.2-9.42,34.05-74.31c1.73-3.77,5.27-5.65,8.81-5.65M147.65,107.49c-9.77,0-18.37,5.52-22.44,14.4l-30.53,66.63-72.81,8.45c-9.71,1.13-17.61,7.6-20.63,16.89-3.02,9.29-.43,19.18,6.76,25.8l53.94,49.63-14.47,71.85c-1.47,7.29.37,14.75,5.06,20.47,4.74,5.79,11.72,9.11,19.15,9.11,4.2,0,8.39-1.11,12.11-3.2l63.86-35.96,63.87,35.96c3.72,2.09,7.91,3.2,12.11,3.2,7.43,0,14.41-3.32,19.15-9.11,4.68-5.72,6.53-13.18,5.06-20.47l-14.47-71.85,53.94-49.63c7.19-6.62,9.78-16.5,6.76-25.8-3.02-9.29-10.93-15.77-20.63-16.89l-72.81-8.45-30.53-66.63c-4.07-8.88-12.67-14.4-22.44-14.4h0Z"/>
      </g>
      <g>
        <path class="cls-1" d="M881.27,383.23c-2.92,0-5.83-.77-8.43-2.24l-67.55-38.03-67.55,38.03c-2.6,1.46-5.51,2.24-8.43,2.24-5.17,0-10.03-2.32-13.35-6.36-3.25-3.97-4.53-9.16-3.51-14.24l15.3-75.99-57.05-52.49c-5.01-4.61-6.81-11.49-4.71-17.96,2.1-6.47,7.61-10.98,14.37-11.76l77-8.93,32.29-70.47c2.83-6.19,8.82-10.03,15.62-10.03s12.79,3.84,15.63,10.03l32.29,70.47,77,8.93c6.76.78,12.26,5.29,14.37,11.76,2.1,6.47.3,13.35-4.71,17.96l-57.04,52.49,15.3,75.99c1.02,5.08-.26,10.27-3.51,14.24-3.31,4.04-8.18,6.37-13.35,6.37Z"/>
        <path class="cls-2" d="M805.29,122.49c3.54,0,7.08,1.88,8.81,5.65l34.05,74.31,81.2,9.42c8.23.96,11.54,11.14,5.44,16.75l-60.15,55.35,16.13,80.13c1.28,6.38-3.77,11.62-9.5,11.62-1.57,0-3.19-.4-4.75-1.27l-71.23-40.11-71.23,40.11c-1.56.88-3.18,1.27-4.75,1.27-5.73,0-10.78-5.25-9.5-11.62l16.13-80.13-60.15-55.35c-6.1-5.61-2.79-15.8,5.44-16.75l81.2-9.42,34.05-74.31c1.73-3.77,5.27-5.65,8.81-5.65M805.29,107.49c-9.77,0-18.37,5.52-22.44,14.4l-30.53,66.63-72.81,8.45c-9.71,1.13-17.61,7.6-20.63,16.89-3.02,9.29-.43,19.18,6.76,25.8l53.94,49.63-14.47,71.85c-1.47,7.29.37,14.75,5.06,20.47,4.74,5.79,11.72,9.11,19.15,9.11,4.2,0,8.39-1.11,12.11-3.2l63.86-35.96,63.87,35.96c3.72,2.09,7.91,3.2,12.11,3.2,7.43,0,14.41-3.32,19.15-9.11,4.68-5.72,6.53-13.18,5.06-20.47l-14.47-71.85,53.94-49.63c7.19-6.62,9.78-16.5,6.76-25.8-3.02-9.29-10.93-15.77-20.63-16.89l-72.81-8.45-30.53-66.63c-4.07-8.88-12.67-14.4-22.44-14.4h0Z"/>
      </g>
    </g>
  </g>
</svg>