<?xml version="1.0" encoding="UTF-8"?>
<svg id="Layer_2" xmlns="http://www.w3.org/2000/svg" viewBox="0 0 899.28 732.01">
  <defs>
    <style>
      .cls-1 {
        fill: #f1f2f2;
      }

      .cls-2 {
        fill: #bcbec0;
      }

      .cls-3 {
        fill: #a7a9ac;
      }

      .cls-4 {
        fill: #d1d3d4;
        stroke: #000;
      }

      .cls-4, .cls-5 {
        stroke-miterlimit: 10;
        stroke-width: 4px;
      }

      .cls-5 {
        stroke: #bcbec0;
      }

      .cls-5, .cls-6 {
        fill: #e6e7e8;
      }

      .cls-7 {
        fill: #ccc;
      }
    </style>
  </defs>
  <g id="Layer_1-2" data-name="Layer_1">
    <g>
      <g>
        <polygon class="cls-1" points="899.28 19.48 637.76 19.48 637.76 300.67 637.76 306.89 637.76 327.04 704.91 327.04 704.91 306.89 809.22 306.89 809.22 449.12 869.06 449.12 869.06 306.89 899.28 306.89 899.28 19.48"/>
        <g>
          <path class="cls-2" d="M694.28,62.59h83.09c5.9,0,10.7,4.79,10.7,10.7v26.02c0,5.9-4.79,10.7-10.7,10.7h-80.12c-10.99,0-19.92-8.92-19.92-19.92v-10.55c0-9.36,7.6-16.95,16.95-16.95Z"/>
          <polygon class="cls-3" points="730.29 100.02 714.68 104.39 714.68 68.21 730.29 72.59 730.29 100.02"/>
          <polygon class="cls-3" points="776.24 100.89 760.63 100.02 760.63 72.93 776.24 71.71 776.24 100.89"/>
          <path class="cls-3" d="M719.29,66.8s19.81,8.57,44.75,3.06c-4.6-1.68-7.55-3.06-7.55-3.06h-37.2Z"/>
          <path class="cls-3" d="M719.29,105.8s19.81-8.57,44.75-3.06c-4.6,1.68-7.55,3.06-7.55,3.06h-37.2Z"/>
          <rect class="cls-2" x="722.48" y="110.01" width="3.81" height="4.12"/>
          <rect class="cls-2" x="700.4" y="110.01" width="12.66" height="2.06"/>
          <rect class="cls-2" x="700.4" y="60.53" width="12.66" height="2.06"/>
          <rect class="cls-2" x="761.13" y="110.01" width="12.66" height="2.06"/>
          <rect class="cls-2" x="761.13" y="60.53" width="12.66" height="2.06"/>
          <rect class="cls-2" x="722.48" y="58.47" width="3.81" height="4.12"/>
          <path class="cls-3" d="M679.79,96.52s2.48,6.9,7.88,9.29l-7.88-9.29Z"/>
          <path class="cls-3" d="M687.67,65.25l-7.88,9.29s2.48-6.9,7.88-9.29"/>
          <path class="cls-3" d="M787.2,72.85s-2.48-6.9-7.88-9.29l7.88,9.29Z"/>
          <path class="cls-3" d="M778.86,109.04l7.88-9.29s-2.48,6.9-7.88,9.29"/>
        </g>
        <g>
          <path class="cls-2" d="M694.28,131.63h83.09c5.9,0,10.7,4.79,10.7,10.7v26.02c0,5.9-4.79,10.7-10.7,10.7h-80.12c-10.99,0-19.92-8.92-19.92-19.92v-10.55c0-9.36,7.6-16.95,16.95-16.95Z"/>
          <polygon class="cls-3" points="730.29 169.05 714.68 173.43 714.68 137.25 730.29 141.63 730.29 169.05"/>
          <polygon class="cls-3" points="776.24 169.93 760.63 169.05 760.63 141.97 776.24 140.75 776.24 169.93"/>
          <path class="cls-3" d="M719.29,135.84s19.81,8.57,44.75,3.06c-4.6-1.68-7.55-3.06-7.55-3.06h-37.2Z"/>
          <path class="cls-3" d="M719.29,174.84s19.81-8.57,44.75-3.06c-4.6,1.68-7.55,3.06-7.55,3.06h-37.2Z"/>
          <rect class="cls-2" x="722.48" y="179.05" width="3.81" height="4.12"/>
          <rect class="cls-2" x="700.4" y="179.05" width="12.66" height="2.06"/>
          <rect class="cls-2" x="700.4" y="129.57" width="12.66" height="2.06"/>
          <rect class="cls-2" x="761.13" y="179.05" width="12.66" height="2.06"/>
          <rect class="cls-2" x="761.13" y="129.57" width="12.66" height="2.06"/>
          <rect class="cls-2" x="722.48" y="127.51" width="3.81" height="4.12"/>
          <path class="cls-3" d="M679.79,165.55s2.48,6.9,7.88,9.29l-7.88-9.29Z"/>
          <path class="cls-3" d="M687.67,134.29l-7.88,9.29s2.48-6.9,7.88-9.29"/>
          <path class="cls-3" d="M787.2,141.89s-2.48-6.9-7.88-9.29l7.88,9.29Z"/>
          <path class="cls-3" d="M778.86,178.07l7.88-9.29s-2.48,6.9-7.88,9.29"/>
        </g>
        <g>
          <path class="cls-2" d="M694.28,200.67h83.09c5.9,0,10.7,4.79,10.7,10.7v26.02c0,5.9-4.79,10.7-10.7,10.7h-80.12c-10.99,0-19.92-8.92-19.92-19.92v-10.55c0-9.36,7.6-16.95,16.95-16.95Z"/>
          <polygon class="cls-3" points="730.29 238.09 714.68 242.47 714.68 206.29 730.29 210.66 730.29 238.09"/>
          <polygon class="cls-3" points="776.24 238.97 760.63 238.09 760.63 211.01 776.24 209.79 776.24 238.97"/>
          <path class="cls-3" d="M719.29,204.88s19.81,8.57,44.75,3.06c-4.6-1.68-7.55-3.06-7.55-3.06h-37.2Z"/>
          <path class="cls-3" d="M719.29,243.88s19.81-8.57,44.75-3.06c-4.6,1.68-7.55,3.06-7.55,3.06h-37.2Z"/>
          <rect class="cls-2" x="722.48" y="248.08" width="3.81" height="4.12"/>
          <rect class="cls-2" x="700.4" y="248.08" width="12.66" height="2.06"/>
          <rect class="cls-2" x="700.4" y="198.61" width="12.66" height="2.06"/>
          <rect class="cls-2" x="761.13" y="248.08" width="12.66" height="2.06"/>
          <rect class="cls-2" x="761.13" y="198.61" width="12.66" height="2.06"/>
          <rect class="cls-2" x="722.48" y="196.55" width="3.81" height="4.12"/>
          <path class="cls-3" d="M679.79,234.59s2.48,6.9,7.88,9.29l-7.88-9.29Z"/>
          <path class="cls-3" d="M687.67,203.33l-7.88,9.29s2.48-6.9,7.88-9.29"/>
          <path class="cls-3" d="M787.2,210.93s-2.48-6.9-7.88-9.29l7.88,9.29Z"/>
          <path class="cls-3" d="M778.86,247.11l7.88-9.29s-2.48,6.9-7.88,9.29"/>
        </g>
      </g>
      <g>
        <polygon class="cls-1" points="417.21 459.34 383.14 459.34 383.14 115.49 319.97 115.49 319.97 308.67 2.01 308.67 2.01 433.12 118.99 433.12 118.99 730.01 324.47 730.01 324.47 537.41 417.21 537.41 417.21 459.34"/>
        <rect class="cls-6" x="205.99" y="308.67" width="70.67" height="148.65"/>
        <rect class="cls-6" x="319.8" y="115.49" width="63.33" height="193.19"/>
        <rect class="cls-6" x="205.99" y="441.35" width="38.4" height="148.65"/>
        <circle class="cls-5" cx="258.99" cy="434.56" r="58.46"/>
        <polygon class="cls-5" points="258.99 515.93 258.99 434.56 203.7 434.56 194.1 434.56 118.99 434.56 118.99 730.01 203.7 730.01 203.7 730.01 244.76 730.01 244.76 578.4 203.7 578.4 203.7 515.93 258.99 515.93"/>
        <rect class="cls-6" x="104.62" y="346.48" width="24.89" height="59.26"/>
        <rect class="cls-6" x="144.32" y="346.48" width="24.89" height="59.26"/>
        <rect class="cls-6" x="62.54" y="346.48" width="24.89" height="59.26" transform="translate(-76.11 23.62) rotate(-11.93)"/>
        <rect class="cls-1" x="299.01" y="167.94" width="63.33" height="14.25" transform="translate(155.62 505.74) rotate(-90)"/>
        <rect class="cls-1" x="319.12" y="167.94" width="63.33" height="14.25" transform="translate(175.72 525.85) rotate(-90)"/>
        <rect class="cls-1" x="339.23" y="167.94" width="63.33" height="14.25" transform="translate(195.83 545.96) rotate(-90)"/>
      </g>
      <rect class="cls-4" x="707.32" y="306.89" width="101.89" height="20.15"/>
      <g>
        <polyline class="cls-4" points="383.14 439.04 383.14 459.34 417.21 459.34 417.21 573.86 488.76 573.86 488.76 612.67 558.1 612.67 558.1 573.86 581.65 573.86 581.65 459.34 581.65 439.04"/>
        <rect class="cls-3" x="409.28" y="476.63" width="15.85" height="4.01" transform="translate(-61.43 895.84) rotate(-90)"/>
        <rect class="cls-3" x="409.28" y="500.75" width="15.85" height="4.01" transform="translate(-85.55 919.97) rotate(-90)"/>
        <rect class="cls-3" x="409.28" y="524.88" width="15.85" height="4.01" transform="translate(-109.67 944.09) rotate(-90)"/>
        <rect class="cls-3" x="409.28" y="549" width="15.85" height="4.01" transform="translate(-133.8 968.22) rotate(-90)"/>
        <rect class="cls-2" x="380.3" y="495.19" width="114.56" height="38.82" transform="translate(-77.02 952.19) rotate(-90)"/>
        <rect class="cls-2" x="529.44" y="474.45" width="87.63" height="12.82" transform="translate(92.41 1054.12) rotate(-90)"/>
        <rect class="cls-2" x="485.03" y="496.05" width="50.97" height="24.81" transform="translate(2.07 1018.97) rotate(-90)"/>
      </g>
      <g>
        <polyline class="cls-4" points="87.43 2.01 87.43 83.78 121.65 83.78 121.65 308.67 319.97 308.67 319.97 83.78 319.97 52.15 319.97 2.01"/>
        <rect class="cls-3" x="123.65" y="306.67" width="194.32" height="4.01"/>
        <rect class="cls-3" x="225.39" y="210.08" width="189.16" height="4.01" transform="translate(532.05 -107.88) rotate(90)"/>
        <rect class="cls-2" x="210.25" y="-4.29" width="15.65" height="132.05" transform="translate(279.81 -156.34) rotate(90)"/>
        <rect class="cls-2" x="181.76" y="53.34" width="25.61" height="27.6" transform="translate(261.71 -127.42) rotate(90)"/>
        <rect class="cls-2" x="210.32" y="83.49" width="15.56" height="65.21" transform="translate(334.2 -102.01) rotate(90)"/>
        <rect class="cls-2" x="210.61" y="56.15" width="15.65" height="129.56" transform="translate(339.37 -97.5) rotate(90)"/>
        <rect class="cls-2" x="153.66" y="132.67" width="13.09" height="13.09" transform="translate(299.42 -20.99) rotate(90)"/>
        <rect class="cls-2" x="173.07" y="132.67" width="13.09" height="13.09" transform="translate(318.83 -40.4) rotate(90)"/>
        <rect class="cls-2" x="192.48" y="132.67" width="13.09" height="13.09" transform="translate(338.24 -59.81) rotate(90)"/>
        <rect class="cls-2" x="211.89" y="132.67" width="13.09" height="13.09" transform="translate(357.65 -79.22) rotate(90)"/>
        <rect class="cls-2" x="231.3" y="132.67" width="13.09" height="13.09" transform="translate(377.06 -98.63) rotate(90)"/>
        <rect class="cls-2" x="250.71" y="132.67" width="13.09" height="13.09" transform="translate(396.47 -118.03) rotate(90)"/>
        <rect class="cls-2" x="270.12" y="132.67" width="13.09" height="13.09" transform="translate(415.88 -137.44) rotate(90)"/>
        <rect class="cls-2" x="231.13" y="210.7" width="62.99" height="28.07" transform="translate(487.36 -37.89) rotate(90)"/>
        <g>
          <rect class="cls-2" x="133.73" y="214.44" width="70.95" height="36.97" transform="translate(-63.71 402.13) rotate(-90)"/>
          <rect class="cls-3" x="185.37" y="266.08" width="2.32" height="2.32" transform="translate(-80.71 453.77) rotate(-90)"/>
          <rect class="cls-3" x="185.37" y="231.39" width="2.32" height="2.32" transform="translate(-46.02 419.09) rotate(-90)"/>
          <rect class="cls-3" x="185.37" y="197.41" width="2.32" height="2.32" transform="translate(-12.04 385.1) rotate(-90)"/>
          <rect class="cls-3" x="150.72" y="266.08" width="2.32" height="2.32" transform="translate(-115.35 419.12) rotate(-90)"/>
          <rect class="cls-3" x="150.72" y="231.39" width="2.32" height="2.32" transform="translate(-80.67 384.44) rotate(-90)"/>
          <rect class="cls-3" x="150.72" y="197.41" width="2.32" height="2.32" transform="translate(-46.69 350.46) rotate(-90)"/>
          <circle class="cls-3" cx="165.71" cy="206.73" r=".8"/>
          <circle class="cls-3" cx="167.3" cy="206.73" r=".8"/>
          <circle class="cls-3" cx="168.89" cy="206.73" r=".8"/>
          <circle class="cls-3" cx="170.48" cy="206.73" r=".8"/>
          <circle class="cls-3" cx="172.07" cy="206.73" r=".8"/>
          <circle class="cls-3" cx="166.51" cy="208.14" r=".8"/>
          <circle class="cls-3" cx="168.1" cy="208.14" r=".8"/>
          <circle class="cls-3" cx="169.69" cy="208.14" r=".8"/>
          <circle class="cls-3" cx="171.28" cy="208.14" r=".8"/>
          <circle class="cls-3" cx="167.3" cy="209.52" r=".8"/>
          <circle class="cls-3" cx="168.89" cy="209.52" r=".8"/>
          <circle class="cls-3" cx="170.48" cy="209.52" r=".8"/>
          <circle class="cls-3" cx="168.1" cy="210.9" r=".8"/>
          <circle class="cls-3" cx="169.69" cy="210.9" r=".8"/>
          <circle class="cls-3" cx="168.89" cy="212.28" r=".8"/>
          <circle class="cls-3" cx="168.89" cy="254.69" r=".8"/>
          <rect class="cls-3" x="158.76" y="220.2" width=".63" height="41.75"/>
          <rect class="cls-3" x="161.71" y="220.2" width=".63" height="41.75" transform="translate(15.07 -9.47) rotate(3.51)"/>
        </g>
        <rect class="cls-3" x="186.09" y="58.01" width="16.95" height="18.27" transform="translate(261.71 -127.42) rotate(90)"/>
      </g>
      <g>
        <polygon class="cls-4" points="72.62 663.64 72.62 539.78 2.01 539.78 2.01 730.01 72.62 730.01 121.65 730.01 121.65 663.64 72.62 663.64"/>
        <rect class="cls-4" x="2.01" y="717.12" width="12.89" height="12.89"/>
        <rect class="cls-3" x="90.47" y="694.81" width="62.37" height="4.01" transform="translate(818.47 575.17) rotate(90)"/>
        <rect class="cls-3" x="74.61" y="661.62" width="45.03" height="4.01" transform="translate(194.26 1327.26) rotate(180)"/>
        <rect class="cls-2" x="-49.34" y="639.92" width="128.47" height="21.82" transform="translate(-635.94 665.73) rotate(-90)"/>
        <rect class="cls-2" x="61.16" y="671.99" width="26.84" height="53.99" transform="translate(-624.4 773.56) rotate(-90)"/>
        <rect class="cls-3" x="-1.05" y="642.89" width="31.88" height="15.89" transform="translate(-635.94 665.73) rotate(-90)"/>
        <rect class="cls-3" x="-1.05" y="558.4" width="31.88" height="15.89" transform="translate(-551.45 581.24) rotate(-90)"/>
        <g>
          <rect x="10.07" y="537.12" width="1.27" height="5.33" transform="translate(21.41 1079.57) rotate(180)"/>
          <rect x="63.28" y="537.12" width="1.27" height="5.33" transform="translate(127.84 1079.57) rotate(180)"/>
          <rect class="cls-3" x="11.38" y="537.79" width="51.92" height="3.99"/>
        </g>
      </g>
      <g>
        <polyline class="cls-4" points="383.14 439.04 383.14 327.04 809.21 327.04 809.21 439.04 581.65 439.04"/>
        <g>
          <rect x="808.58" y="360.15" width="1.27" height="5.33" transform="translate(446.41 1172.04) rotate(-90)"/>
          <rect x="808.58" y="410.09" width="1.27" height="5.33" transform="translate(396.46 1221.96) rotate(-90)"/>
          <rect class="cls-3" x="784.89" y="385.79" width="48.67" height="3.99" transform="translate(1197 -421.44) rotate(90)"/>
        </g>
        <rect class="cls-3" x="319" y="391.18" width="128.26" height="4.01" transform="translate(-10.05 776.33) rotate(-90)"/>
        <rect class="cls-3" x="637.76" y="325.04" width="67.15" height="4.01"/>
        <rect class="cls-7" x="663.99" y="347.64" width="77.18" height="64.37"/>
        <rect class="cls-2" x="668.01" y="336.38" width="69.15" height="26.45"/>
        <circle class="cls-2" cx="702.58" cy="385.02" r="10.62"/>
        <g>
          <rect class="cls-2" x="706.16" y="401.92" width="15.46" height="20.41" transform="translate(1126 -301.77) rotate(90)"/>
          <rect class="cls-2" x="683.55" y="401.92" width="15.46" height="20.41" transform="translate(1103.39 -279.16) rotate(90)"/>
        </g>
        <rect class="cls-2" x="496.7" y="342.96" width="27.63" height="80.16" transform="translate(127.47 893.56) rotate(-90)"/>
        <rect class="cls-2" x="533.12" y="355.4" width="8.64" height="15.28" transform="translate(174.4 900.48) rotate(-90)"/>
        <rect class="cls-2" x="506.53" y="355.4" width="8.64" height="15.28" transform="translate(147.82 873.89) rotate(-90)"/>
        <rect class="cls-2" x="533.12" y="395.41" width="8.64" height="15.28" transform="translate(134.4 940.49) rotate(-90)"/>
        <rect class="cls-2" x="506.53" y="395.41" width="8.64" height="15.28" transform="translate(107.81 913.9) rotate(-90)"/>
        <rect class="cls-2" x="479.95" y="355.4" width="8.64" height="15.28" transform="translate(121.23 847.31) rotate(-90)"/>
        <rect class="cls-2" x="479.95" y="395.41" width="8.64" height="15.28" transform="translate(81.22 887.32) rotate(-90)"/>
        <rect class="cls-2" x="552.77" y="375.4" width="8.64" height="15.28"/>
        <rect class="cls-2" x="459.62" y="375.4" width="8.64" height="15.28"/>
        <rect class="cls-2" x="401.25" y="375.36" width="15.46" height="20.41" transform="translate(425.54 947.39) rotate(-135)"/>
        <rect class="cls-2" x="399.69" y="407.53" width="15.46" height="20.41" transform="translate(969.12 575.79) rotate(150)"/>
      </g>
      <g>
        <rect class="cls-4" x="716.47" y="439.04" width="92.74" height="134.81"/>
        <rect class="cls-3" x="718.43" y="571.85" width="75.89" height="4.01"/>
        <rect class="cls-3" x="750.25" y="498" width="117.93" height="4.01" transform="translate(1309.22 -309.2) rotate(90)"/>
        <rect class="cls-4" x="796.32" y="560.97" width="12.89" height="12.89"/>
        <g>
          <rect x="724.14" y="436.38" width="1.27" height="5.33" transform="translate(1449.56 878.08) rotate(180)"/>
          <rect x="784.75" y="436.38" width="1.27" height="5.33" transform="translate(1570.77 878.08) rotate(180)"/>
          <rect class="cls-3" x="725.41" y="437.04" width="59.34" height="3.99"/>
        </g>
        <rect class="cls-2" x="718.43" y="496.01" width="59.89" height="31.33"/>
        <rect class="cls-2" x="727.29" y="474.51" width="17.72" height="17.72" transform="translate(-44.39 75.56) rotate(-5.7)"/>
        <rect class="cls-2" x="752.85" y="474.51" width="17.72" height="17.72" transform="translate(189.44 -214.02) rotate(18.23)"/>
        <rect class="cls-2" x="741.79" y="530.73" width="17.72" height="17.72" transform="translate(-49.91 77.28) rotate(-5.7)"/>
        <rect class="cls-3" x="737.99" y="510.24" width="20.78" height="10.87"/>
      </g>
      <g>
        <rect class="cls-4" x="581.65" y="439.04" width="134.81" height="134.81"/>
        <g>
          <rect x="646.91" y="436.38" width="1.27" height="5.33" transform="translate(1295.09 878.08) rotate(180)"/>
          <rect x="707.52" y="436.38" width="1.27" height="5.33" transform="translate(1416.31 878.08) rotate(180)"/>
          <rect class="cls-3" x="648.18" y="437.04" width="59.34" height="3.99"/>
        </g>
        <rect class="cls-7" x="582.23" y="480.65" width="96.34" height="64.29" transform="translate(1143.2 -117.6) rotate(90)"/>
        <polygon class="cls-2" points="638.11 571.86 655.69 571.86 655.69 529.78 638.11 529.78 638.11 547.55 607.94 547.55 607.94 485.71 583.63 485.71 583.63 571.86 607.94 571.86 607.94 571.86 638.11 571.86 638.11 571.86"/>
        <rect class="cls-2" x="583.63" y="455.93" width="24.3" height="24.3"/>
        <rect class="cls-2" x="698.99" y="455.93" width="15.44" height="105.04"/>
        <rect class="cls-3" x="706.71" y="473.31" width="2.58" height="70.28"/>
      </g>
      <g>
        <polygon class="cls-4" points="464.32 115.49 464.32 72.52 403.28 72.52 403.28 115.49 383.14 115.49 383.14 327.04 551.43 327.04 551.43 115.49 464.32 115.49"/>
        <rect class="cls-3" x="279.38" y="219.25" width="207.5" height="4.01" transform="translate(161.88 604.39) rotate(-90)"/>
        <rect class="cls-3" x="481.18" y="185.75" width="140.5" height="4.01" transform="translate(739.18 -363.68) rotate(90)"/>
        <g>
          <rect x="398.75" y="324.38" width="1.27" height="5.33" transform="translate(798.76 654.08) rotate(180)"/>
          <rect x="534.55" y="324.38" width="1.27" height="5.33" transform="translate(1070.37 654.08) rotate(180)"/>
          <rect class="cls-3" x="400.02" y="325.04" width="134.54" height="3.99"/>
        </g>
        <g>
          <rect x="407.08" y="69.86" width="1.27" height="5.33" transform="translate(815.42 145.05) rotate(180)"/>
          <rect x="459.26" y="69.86" width="1.27" height="5.33" transform="translate(919.79 145.05) rotate(180)"/>
          <rect class="cls-3" x="408.35" y="70.52" width="50.91" height="3.99"/>
        </g>
        <rect class="cls-2" x="414.83" y="191.02" width="93.04" height="16.82" transform="translate(922.71 398.86) rotate(180)"/>
        <rect class="cls-2" x="414.83" y="209.53" width="93.04" height="10.6" transform="translate(922.71 429.67) rotate(180)"/>
        <rect class="cls-2" x="414.83" y="223.61" width="10.6" height="10.6" transform="translate(840.27 457.82) rotate(180)"/>
        <rect class="cls-2" x="431.32" y="223.61" width="10.6" height="10.6" transform="translate(873.24 457.82) rotate(180)"/>
        <rect class="cls-2" x="464.3" y="223.61" width="10.6" height="10.6" transform="translate(939.2 457.82) rotate(180)"/>
        <rect class="cls-2" x="480.79" y="223.61" width="10.6" height="10.6" transform="translate(972.17 457.82) rotate(180)"/>
        <rect class="cls-2" x="497.27" y="223.61" width="10.6" height="10.6" transform="translate(1005.15 457.82) rotate(180)"/>
        <rect class="cls-2" x="447.81" y="223.61" width="10.6" height="10.6" transform="translate(906.22 457.82) rotate(180)"/>
        <rect class="cls-2" x="453.11" y="117.5" width="96.32" height="18.72" transform="translate(1002.54 253.73) rotate(180)"/>
        <rect class="cls-2" x="530.69" y="136.23" width="18.72" height="56.22" transform="translate(1080.11 328.68) rotate(180)"/>
      </g>
      <g>
        <rect class="cls-4" x="417.21" y="573.86" width="71.56" height="38.81"/>
        <rect class="cls-3" x="405.11" y="591.26" width="24.19" height="4.01" transform="translate(-176.06 1010.47) rotate(-90)"/>
        <g>
          <rect x="488.13" y="578.5" width="1.27" height="5.33" transform="translate(-92.4 1069.94) rotate(-90)"/>
          <rect x="488.13" y="599.88" width="1.27" height="5.33" transform="translate(-113.78 1091.31) rotate(-90)"/>
          <rect class="cls-3" x="478.71" y="589.86" width="20.11" height="3.99" transform="translate(1080.62 103.09) rotate(90)"/>
        </g>
        <rect class="cls-2" x="444.19" y="576.26" width="15.12" height="32.6" transform="translate(-140.81 1044.32) rotate(-90)"/>
      </g>
      <g>
        <rect class="cls-4" x="558.1" y="573.86" width="97.33" height="101.26"/>
        <rect class="cls-3" x="568.06" y="673.11" width="74.59" height="4.01"/>
        <g>
          <rect x="557.46" y="578.5" width="1.27" height="5.33" transform="translate(-23.07 1139.27) rotate(-90)"/>
          <rect x="557.46" y="599.88" width="1.27" height="5.33" transform="translate(-44.44 1160.65) rotate(-90)"/>
          <rect class="cls-3" x="548.04" y="589.86" width="20.11" height="3.99" transform="translate(1149.95 33.76) rotate(90)"/>
        </g>
        <rect class="cls-2" x="613.46" y="571.39" width="24.99" height="54.91" transform="translate(27.11 1224.8) rotate(-90)"/>
        <rect class="cls-2" x="613.46" y="623.61" width="24.99" height="54.91" transform="translate(-25.11 1277.02) rotate(-90)"/>
        <rect class="cls-2" x="544.14" y="620.26" width="40.36" height="8.44" transform="translate(-60.16 1188.8) rotate(-90)"/>
        <rect class="cls-3" x="546.07" y="623.52" width="36.51" height="1.93" transform="translate(-60.16 1188.8) rotate(-90)"/>
      </g>
      <g>
        <rect class="cls-4" x="488.76" y="612.67" width="69.33" height="62.44"/>
        <g>
          <rect x="557.46" y="644.73" width="1.27" height="5.33" transform="translate(-89.29 1205.49) rotate(-90)"/>
          <rect x="557.46" y="666.1" width="1.27" height="5.33" transform="translate(-110.67 1226.87) rotate(-90)"/>
          <rect class="cls-3" x="548.04" y="656.08" width="20.11" height="3.99" transform="translate(1216.18 99.98) rotate(90)"/>
        </g>
        <rect class="cls-2" x="514.91" y="590.52" width="17.04" height="65.34" transform="translate(-99.76 1146.62) rotate(-90)"/>
      </g>
      <g>
        <rect class="cls-4" x="417.21" y="612.67" width="71.56" height="62.44"/>
        <rect class="cls-3" x="405.32" y="628.37" width="23.78" height="4.01" transform="translate(-213.17 1047.59) rotate(-90)"/>
        <g>
          <rect x="488.13" y="644.73" width="1.27" height="5.33" transform="translate(-158.62 1136.16) rotate(-90)"/>
          <rect x="488.13" y="666.1" width="1.27" height="5.33" transform="translate(-180 1157.54) rotate(-90)"/>
          <rect class="cls-3" x="478.71" y="656.08" width="20.11" height="3.99" transform="translate(1146.84 169.31) rotate(90)"/>
        </g>
        <rect class="cls-2" x="419.22" y="654.81" width="17.19" height="11.79" transform="translate(855.62 1321.4) rotate(180)"/>
        <rect class="cls-2" x="436.29" y="630.09" width="33.4" height="2.47" transform="translate(-178.34 1084.31) rotate(-90)"/>
        <rect class="cls-2" x="419.23" y="648.03" width="34.95" height="2.47" transform="translate(873.41 1298.52) rotate(180)"/>
        <rect class="cls-2" x="427.37" y="618.99" width="11.18" height="2.47" transform="translate(1053.18 187.25) rotate(90)"/>
        <rect class="cls-2" x="462.92" y="605.89" width="15.12" height="32.6" transform="translate(-151.71 1092.67) rotate(-90)"/>
        <rect class="cls-2" x="429.53" y="624.91" width="6.88" height="6.88" transform="translate(1061.31 195.38) rotate(90)"/>
        <rect class="cls-3" x="465.12" y="616.17" width="10.77" height="15.24" transform="translate(-153.29 1094.31) rotate(-90)"/>
      </g>
      <g>
        <rect class="cls-4" x="655.43" y="573.86" width="61.04" height="101.26"/>
        <rect class="cls-3" x="674.02" y="673.11" width="23.85" height="4.01"/>
        <g>
          <rect x="674.63" y="571.19" width="1.27" height="5.33" transform="translate(1350.53 1147.71) rotate(180)"/>
          <rect x="696" y="571.19" width="1.27" height="5.33" transform="translate(1393.28 1147.71) rotate(180)"/>
          <rect class="cls-3" x="675.9" y="571.86" width="20.11" height="3.99"/>
        </g>
        <rect class="cls-2" x="700.59" y="575.86" width="13.84" height="97.26"/>
        <rect class="cls-2" x="657.43" y="575.86" width="13.84" height="97.26"/>
      </g>
      <g>
        <rect class="cls-4" x="593.54" y="260.01" width="42.11" height="67.04"/>
        <g>
          <rect x="603.28" y="324.38" width="1.27" height="5.33" transform="translate(1207.82 654.08) rotate(180)"/>
          <rect x="624.65" y="324.38" width="1.27" height="5.33" transform="translate(1250.57 654.08) rotate(180)"/>
          <rect class="cls-3" x="604.54" y="325.05" width="20.11" height="3.99"/>
        </g>
      </g>
      <g>
        <rect class="cls-4" x="551.43" y="260.01" width="42.11" height="67.04"/>
        <rect class="cls-3" x="557.67" y="258" width="29.63" height="4.01"/>
        <g>
          <rect x="561.16" y="324.38" width="1.27" height="5.33" transform="translate(1123.6 654.08) rotate(180)"/>
          <rect x="582.54" y="324.38" width="1.27" height="5.33" transform="translate(1166.35 654.08) rotate(180)"/>
          <rect class="cls-3" x="562.43" y="325.05" width="20.11" height="3.99"/>
        </g>
      </g>
      <g>
        <rect class="cls-4" x="464.32" y="43.78" width="87.11" height="71.7"/>
        <rect class="cls-3" x="528.58" y="77.63" width="45.7" height="4.01" transform="translate(631.07 -471.8) rotate(90)"/>
        <g>
          <rect x="463.69" y="44.8" width="1.27" height="5.33" transform="translate(416.86 511.79) rotate(-90)"/>
          <rect x="463.69" y="66.18" width="1.27" height="5.33" transform="translate(395.48 533.16) rotate(-90)"/>
          <rect class="cls-3" x="454.27" y="56.16" width="20.11" height="3.99" transform="translate(522.47 -406.17) rotate(90)"/>
        </g>
        <rect class="cls-2" x="513.75" y="23.91" width="13.81" height="57.56" transform="translate(467.96 573.35) rotate(-90)"/>
        <rect class="cls-2" x="507.32" y="71.32" width="26.71" height="57.56" transform="translate(420.58 620.78) rotate(-90)"/>
      </g>
      <g>
        <rect class="cls-4" x="319.97" y="72.52" width="83.31" height="42.96"/>
        <g>
          <rect x="402.65" y="84.9" width="1.27" height="5.33" transform="translate(315.72 490.85) rotate(-90)"/>
          <rect x="402.65" y="106.28" width="1.27" height="5.33" transform="translate(294.34 512.23) rotate(-90)"/>
          <rect class="cls-3" x="393.23" y="96.26" width="20.11" height="3.99" transform="translate(501.53 -305.03) rotate(90)"/>
        </g>
        <rect class="cls-2" x="345.94" y="79.85" width="9.69" height="57.56" transform="translate(242.16 459.42) rotate(-90)"/>
        <rect class="cls-2" x="345.94" y="79.85" width="9.69" height="57.56" transform="translate(242.16 459.42) rotate(-90)"/>
        <rect class="cls-2" x="321.97" y="74.52" width="9.69" height="38.96" transform="translate(653.64 187.99) rotate(180)"/>
        <rect class="cls-2" x="343.28" y="53.22" width="9.69" height="52.28" transform="translate(268.77 427.49) rotate(-90)"/>
      </g>
      <g>
        <rect class="cls-4" x="319.97" y="2.01" width="83.31" height="70.52"/>
        <rect class="cls-3" x="331.23" y="0" width="60.8" height="4.01"/>
        <g>
          <rect x="375.07" y="69.86" width="1.27" height="5.33" transform="translate(751.41 145.05) rotate(180)"/>
          <rect x="396.45" y="69.86" width="1.27" height="5.33" transform="translate(794.17 145.05) rotate(180)"/>
          <rect class="cls-3" x="376.34" y="70.53" width="20.11" height="3.99"/>
        </g>
        <rect class="cls-2" x="341.62" y="38.42" width="12.44" height="51.77" transform="translate(283.55 412.15) rotate(-90)"/>
        <rect class="cls-2" x="321.33" y="26.56" width="21.53" height="20.28" transform="translate(295.39 368.79) rotate(-90)"/>
      </g>
      <g>
        <rect class="cls-4" x="464.32" y="2.01" width="87.11" height="41.78"/>
        <rect class="cls-3" x="529.95" y="0" width="19.33" height="4.01"/>
        <g>
          <rect x="463.69" y="16.18" width="1.27" height="5.33" transform="translate(445.48 483.16) rotate(-90)"/>
          <rect x="463.69" y="37.55" width="1.27" height="5.33" transform="translate(424.1 504.54) rotate(-90)"/>
          <rect class="cls-3" x="454.27" y="27.53" width="20.11" height="3.99" transform="translate(493.85 -434.79) rotate(90)"/>
        </g>
        <rect class="cls-2" x="479.32" y="-8.98" width="14.08" height="40.08" transform="translate(497.42 -475.3) rotate(90)"/>
        <rect class="cls-2" x="509.42" y="21.69" width="37.78" height="2.43" transform="translate(551.21 -505.41) rotate(90)"/>
        <rect class="cls-2" x="534.77" y="35.37" width="10.42" height="2.43" transform="translate(503.4 576.56) rotate(-90)"/>
        <rect class="cls-2" x="506.23" y="25.19" width="20.79" height="12.42" transform="translate(548.02 -485.22) rotate(90)"/>
        <rect class="cls-2" x="536.59" y="25.49" width="6.77" height="6.77" transform="translate(511.1 568.86) rotate(-90)"/>
        <rect class="cls-3" x="481.59" y="4.44" width="9.54" height="13.24" transform="translate(497.42 -475.29) rotate(90)"/>
      </g>
      <g>
        <rect class="cls-4" x="207.08" y="2.01" width="85.43" height="50.15"/>
        <rect class="cls-3" x="209.08" y="0" width="81.42" height="4.01"/>
        <g>
          <rect x="291.87" y="23.91" width="1.27" height="5.33" transform="translate(265.93 319.08) rotate(-90)"/>
          <rect x="291.87" y="45.29" width="1.27" height="5.33" transform="translate(244.55 340.46) rotate(-90)"/>
          <rect class="cls-3" x="282.45" y="35.27" width="20.11" height="3.99" transform="translate(329.77 -255.24) rotate(90)"/>
        </g>
        <rect class="cls-2" x="251.36" y="4.01" width="39.13" height="13.42" transform="translate(541.86 21.44) rotate(180)"/>
        <rect class="cls-2" x="209.06" y="4.01" width="19.69" height="46.14" transform="translate(437.8 54.16) rotate(180)"/>
      </g>
      <g>
        <rect class="cls-4" x="121.65" y="2.01" width="85.43" height="50.15"/>
        <rect class="cls-3" x="179.43" width="23.56" height="4.01"/>
        <g>
          <rect x="121.02" y="23.91" width="1.27" height="5.33" transform="translate(95.08 148.23) rotate(-90)"/>
          <rect x="121.02" y="45.29" width="1.27" height="5.33" transform="translate(73.7 169.61) rotate(-90)"/>
          <rect class="cls-3" x="111.6" y="35.27" width="20.11" height="3.99" transform="translate(158.92 -84.39) rotate(90)"/>
        </g>
        <rect class="cls-2" x="136.65" y="-8.99" width="14.08" height="40.08" transform="translate(154.74 -132.65) rotate(90)"/>
        <rect class="cls-2" x="153.09" y="25.85" width="46.13" height="2.43" transform="translate(203.22 -149.09) rotate(90)"/>
        <rect class="cls-2" x="186" y="43.71" width="10.42" height="2.43" transform="translate(146.29 236.13) rotate(-90)"/>
        <rect class="cls-2" x="154.07" y="33.53" width="20.79" height="12.42" transform="translate(204.21 -124.73) rotate(90)"/>
        <rect class="cls-2" x="187.82" y="33.83" width="6.77" height="6.77" transform="translate(153.99 228.43) rotate(-90)"/>
        <rect class="cls-3" x="138.92" y="4.43" width="9.54" height="13.24" transform="translate(154.74 -132.64) rotate(90)"/>
      </g>
      <g>
        <rect class="cls-4" x="2.01" y="2.01" width="85.43" height="50.15"/>
        <rect class="cls-3" x="6.8" y="0" width="26.11" height="4.01"/>
        <g>
          <rect x="86.8" y="23.91" width="1.27" height="5.33" transform="translate(60.85 114.01) rotate(-90)"/>
          <rect x="86.8" y="45.29" width="1.27" height="5.33" transform="translate(39.48 135.39) rotate(-90)"/>
          <rect class="cls-3" x="77.38" y="35.27" width="20.11" height="3.99" transform="translate(124.7 -50.17) rotate(90)"/>
        </g>
        <rect class="cls-2" x="58.32" y="-8.97" width="14.08" height="40.08" transform="translate(76.43 -54.29) rotate(90)"/>
        <rect class="cls-2" x="12.26" y="25.87" width="46.13" height="2.43" transform="translate(62.42 -8.24) rotate(90)"/>
        <rect class="cls-2" x="4.01" y="26" width="10.42" height="2.43"/>
        <rect class="cls-2" x="38.41" y="33.55" width="20.79" height="12.42" transform="translate(88.57 -9.04) rotate(90)"/>
        <rect class="cls-2" x="13.54" y="23.83" width="6.77" height="6.77"/>
        <rect class="cls-3" x="60.59" y="4.45" width="9.54" height="13.24" transform="translate(76.44 -54.29) rotate(90)"/>
      </g>
      <g>
        <polygon class="cls-4" points="87.43 83.78 87.43 52.15 2.01 52.15 2.01 308.67 87.43 308.67 121.65 308.67 121.65 83.78 87.43 83.78"/>
        <rect class="cls-3" x="-124.21" y="178.4" width="252.43" height="4.01" transform="translate(-178.4 182.41) rotate(-90)"/>
        <rect class="cls-3" x="4.01" y="306.67" width="115.63" height="4.01"/>
        <g>
          <rect x="121.02" y="126.73" width="1.27" height="5.33" transform="translate(-7.74 251.05) rotate(-90)"/>
          <rect x="121.02" y="277.86" width="1.27" height="5.33" transform="translate(-158.87 402.18) rotate(-90)"/>
          <rect class="cls-3" x="46.78" y="202.96" width="149.86" height="3.99" transform="translate(326.67 83.25) rotate(90)"/>
        </g>
        <g>
          <rect x="86.8" y="55.27" width="1.27" height="5.33" transform="translate(29.5 145.36) rotate(-90)"/>
          <rect x="86.8" y="76.64" width="1.27" height="5.33" transform="translate(8.12 166.74) rotate(-90)"/>
          <rect class="cls-3" x="77.38" y="66.62" width="20.11" height="3.99" transform="translate(156.05 -18.81) rotate(90)"/>
        </g>
        <rect class="cls-2" x="31.8" y="109.44" width="12.89" height="33.58" transform="translate(164.47 87.98) rotate(90)"/>
        <rect class="cls-2" x="31.02" y="134.57" width="29.33" height="69.09" transform="translate(214.81 123.42) rotate(90)"/>
        <rect class="cls-2" x="43.82" y="210.75" width="13.49" height="32.39" transform="translate(277.52 176.38) rotate(90)"/>
        <rect class="cls-2" x="80.63" y="217.89" width="13.49" height="18.11" transform="translate(314.33 139.57) rotate(90)"/>
        <rect class="cls-2" x="48.57" y="123.12" width="19.11" height="6.21" transform="translate(184.35 68.1) rotate(90)"/>
      </g>
    </g>
  </g>
</svg>