<?xml version="1.0" encoding="UTF-8"?>
<svg id="Layer_2" xmlns="http://www.w3.org/2000/svg" viewBox="0 0 1075.78 452.97">
  <defs>
    <style>
      .cls-1 {
        fill: #f1f2f2;
      }

      .cls-2 {
        fill: #bcbec0;
      }

      .cls-3 {
        fill: #a7a9ac;
      }

      .cls-4, .cls-5, .cls-6 {
        stroke-miterlimit: 10;
        stroke-width: 4px;
      }

      .cls-4, .cls-6 {
        stroke: #000;
      }

      .cls-4, .cls-7 {
        fill: #d1d3d4;
      }

      .cls-5 {
        fill: #e6e7e8;
        stroke: #bcbec0;
      }

      .cls-6 {
        fill: none;
      }

      .cls-8 {
        fill: #ccc;
      }
    </style>
  </defs>
  <g id="Layer_1-2" data-name="Layer_1">
    <g>
      <g>
        <rect class="cls-1" x="776.23" y="81.71" width="299.56" height="232.59"/>
        <rect class="cls-2" x="779.72" y="210.97" width="16.04" height="100.67" transform="translate(1575.47 522.6) rotate(180)"/>
        <g>
          <path class="cls-2" d="M817.94,103.33h83.09c5.9,0,10.7,4.79,10.7,10.7v26.02c0,5.9-4.79,10.7-10.7,10.7h-80.12c-10.99,0-19.92-8.92-19.92-19.92v-10.55c0-9.36,7.6-16.95,16.95-16.95Z"/>
          <polygon class="cls-3" points="853.95 140.76 838.34 145.13 838.34 108.95 853.95 113.33 853.95 140.76"/>
          <polygon class="cls-3" points="899.91 141.63 884.3 140.76 884.3 113.67 899.91 112.45 899.91 141.63"/>
          <path class="cls-3" d="M842.95,107.54s19.81,8.57,44.75,3.06c-4.6-1.68-7.55-3.06-7.55-3.06h-37.2Z"/>
          <path class="cls-3" d="M842.95,146.54s19.81-8.57,44.75-3.06c-4.6,1.68-7.55,3.06-7.55,3.06h-37.2Z"/>
          <rect class="cls-2" x="846.15" y="150.75" width="3.81" height="4.12"/>
          <rect class="cls-2" x="824.06" y="150.75" width="12.66" height="2.06"/>
          <rect class="cls-2" x="824.06" y="101.27" width="12.66" height="2.06"/>
          <rect class="cls-2" x="884.79" y="150.75" width="12.66" height="2.06"/>
          <rect class="cls-2" x="884.79" y="101.27" width="12.66" height="2.06"/>
          <rect class="cls-2" x="846.15" y="99.21" width="3.81" height="4.12"/>
          <path class="cls-3" d="M803.45,137.26s2.48,6.9,7.88,9.29l-7.88-9.29Z"/>
          <path class="cls-3" d="M811.33,105.99l-7.88,9.29s2.48-6.9,7.88-9.29"/>
          <path class="cls-3" d="M910.86,113.59s-2.48-6.9-7.88-9.29l7.88,9.29Z"/>
          <path class="cls-3" d="M902.52,149.78l7.88-9.29s-2.48,6.9-7.88,9.29"/>
        </g>
        <g>
          <path class="cls-2" d="M817.94,172.37h83.09c5.9,0,10.7,4.79,10.7,10.7v26.02c0,5.9-4.79,10.7-10.7,10.7h-80.12c-10.99,0-19.92-8.92-19.92-19.92v-10.55c0-9.36,7.6-16.95,16.95-16.95Z"/>
          <polygon class="cls-3" points="853.95 209.79 838.34 214.17 838.34 177.99 853.95 182.37 853.95 209.79"/>
          <polygon class="cls-3" points="899.91 210.67 884.3 209.79 884.3 182.71 899.91 181.49 899.91 210.67"/>
          <path class="cls-3" d="M842.95,176.58s19.81,8.57,44.75,3.06c-4.6-1.68-7.55-3.06-7.55-3.06h-37.2Z"/>
          <path class="cls-3" d="M842.95,215.58s19.81-8.57,44.75-3.06c-4.6,1.68-7.55,3.06-7.55,3.06h-37.2Z"/>
          <rect class="cls-2" x="846.15" y="219.79" width="3.81" height="4.12"/>
          <rect class="cls-2" x="824.06" y="219.79" width="12.66" height="2.06"/>
          <rect class="cls-2" x="824.06" y="170.31" width="12.66" height="2.06"/>
          <rect class="cls-2" x="884.79" y="219.79" width="12.66" height="2.06"/>
          <rect class="cls-2" x="884.79" y="170.31" width="12.66" height="2.06"/>
          <rect class="cls-2" x="846.15" y="168.25" width="3.81" height="4.12"/>
          <path class="cls-3" d="M803.45,206.29s2.48,6.9,7.88,9.29l-7.88-9.29Z"/>
          <path class="cls-3" d="M811.33,175.03l-7.88,9.29s2.48-6.9,7.88-9.29"/>
          <path class="cls-3" d="M910.86,182.63s-2.48-6.9-7.88-9.29l7.88,9.29Z"/>
          <path class="cls-3" d="M902.52,218.81l7.88-9.29s-2.48,6.9-7.88,9.29"/>
        </g>
        <g>
          <path class="cls-2" d="M817.94,241.41h83.09c5.9,0,10.7,4.79,10.7,10.7v26.02c0,5.9-4.79,10.7-10.7,10.7h-80.12c-10.99,0-19.92-8.92-19.92-19.92v-10.55c0-9.36,7.6-16.95,16.95-16.95Z"/>
          <polygon class="cls-3" points="853.95 278.83 838.34 283.21 838.34 247.03 853.95 251.4 853.95 278.83"/>
          <polygon class="cls-3" points="899.91 279.71 884.3 278.83 884.3 251.75 899.91 250.53 899.91 279.71"/>
          <path class="cls-3" d="M842.95,245.62s19.81,8.57,44.75,3.06c-4.6-1.68-7.55-3.06-7.55-3.06h-37.2Z"/>
          <path class="cls-3" d="M842.95,284.62s19.81-8.57,44.75-3.06c-4.6,1.68-7.55,3.06-7.55,3.06h-37.2Z"/>
          <rect class="cls-2" x="846.15" y="288.82" width="3.81" height="4.12"/>
          <rect class="cls-2" x="824.06" y="288.82" width="12.66" height="2.06"/>
          <rect class="cls-2" x="824.06" y="239.35" width="12.66" height="2.06"/>
          <rect class="cls-2" x="884.79" y="288.82" width="12.66" height="2.06"/>
          <rect class="cls-2" x="884.79" y="239.35" width="12.66" height="2.06"/>
          <rect class="cls-2" x="846.15" y="237.29" width="3.81" height="4.12"/>
          <path class="cls-3" d="M803.45,275.33s2.48,6.9,7.88,9.29l-7.88-9.29Z"/>
          <path class="cls-3" d="M811.33,244.07l-7.88,9.29s2.48-6.9,7.88-9.29"/>
          <path class="cls-3" d="M910.86,251.67s-2.48-6.9-7.88-9.29l7.88,9.29Z"/>
          <path class="cls-3" d="M902.52,287.85l7.88-9.29s-2.48,6.9-7.88,9.29"/>
        </g>
      </g>
      <g>
        <polyline class="cls-4" points="636.89 269.27 563.19 269.27 563.19 398.15 719.04 398.15 719.04 358.75 765.56 358.75 765.56 314.3 776.23 314.3 776.23 269.27"/>
        <rect class="cls-2" x="621.46" y="288.2" width="23.59" height="88.02" transform="translate(301.04 965.47) rotate(-90)"/>
        <rect class="cls-2" x="624.65" y="349.78" width="17.21" height="76.17" transform="translate(245.39 1021.12) rotate(-90)"/>
        <rect class="cls-2" x="668.97" y="348.08" width="81.85" height="14.3" transform="translate(354.67 1065.13) rotate(-90)"/>
        <rect class="cls-3" x="626.21" y="376.01" width="14.1" height="23.72" transform="translate(245.39 1021.12) rotate(-90)"/>
        <rect class="cls-3" x="626.21" y="326.51" width="14.1" height="14.88" transform="translate(299.3 967.21) rotate(-90)"/>
        <rect class="cls-3" x="646.95" y="326.51" width="14.1" height="14.88" transform="translate(320.04 987.95) rotate(-90)"/>
      </g>
      <g>
        <polygon class="cls-7" points="387.34 169.71 387.34 269.27 446.45 269.27 446.45 398.15 563.19 398.15 563.19 269.27 563.19 169.71 387.34 169.71"/>
        <polyline class="cls-6" points="446.45 398.15 563.19 398.15 563.19 269.27 563.19 169.71 387.34 169.71 387.34 269.27"/>
        <g>
          <rect x="562.56" y="370.85" width="1.27" height="5.33" transform="translate(936.71 -189.67) rotate(90)"/>
          <rect x="562.56" y="293.98" width="1.27" height="5.33" transform="translate(859.84 -266.54) rotate(90)"/>
          <rect class="cls-3" x="525.41" y="333.09" width="75.6" height="3.99" transform="translate(228.13 898.3) rotate(-90)"/>
        </g>
        <rect class="cls-2" x="533.96" y="241.31" width="12.9" height="12.9" transform="translate(788.16 -292.65) rotate(90)"/>
        <rect class="cls-2" x="526.32" y="223.93" width="12.9" height="12.9" transform="translate(318.95 -309.25) rotate(45)"/>
        <rect class="cls-2" x="526.32" y="258.38" width="12.9" height="12.9" transform="translate(1096.76 75.36) rotate(135)"/>
        <rect class="cls-2" x="485.52" y="241.01" width="12.9" height="12.9" transform="translate(244.52 739.43) rotate(-90)"/>
        <rect class="cls-2" x="493.16" y="258.38" width="12.9" height="12.9" transform="translate(665.62 805.37) rotate(-135)"/>
        <rect class="cls-2" x="493.16" y="223.93" width="12.9" height="12.9" transform="translate(-16.57 420.75) rotate(-45)"/>
        <rect class="cls-2" x="509.93" y="217.58" width="12.9" height="12.9"/>
        <rect class="cls-2" x="509.93" y="264.83" width="12.9" height="12.9"/>
        <circle class="cls-3" cx="516.38" cy="247.76" r="21.81"/>
        <rect class="cls-2" x="421.11" y="212.89" width="25.86" height="65.12" transform="translate(188.59 679.49) rotate(-90)"/>
        <rect class="cls-2" x="428.52" y="196.06" width="11.03" height="24.82" transform="translate(225.57 642.51) rotate(-90)"/>
        <rect class="cls-2" x="427.23" y="148.81" width="13.71" height="59.49" transform="translate(255.52 612.64) rotate(-90)"/>
        <rect class="cls-3" x="433.1" y="156.65" width="2" height="43.82" transform="translate(255.55 612.66) rotate(-90)"/>
        <rect class="cls-2" x="448.63" y="368.58" width="25.41" height="29.74" transform="translate(77.89 844.79) rotate(-90)"/>
        <rect class="cls-2" x="497.08" y="358.64" width="16.67" height="58.37" transform="translate(117.6 893.24) rotate(-90)"/>
        <rect class="cls-2" x="478.75" y="288.15" width="23.59" height="88.12" transform="translate(158.35 822.77) rotate(-90)"/>
        <rect class="cls-2" x="518.64" y="307.17" width="8.67" height="13.15" transform="translate(209.24 836.72) rotate(-90)"/>
        <rect class="cls-2" x="501.59" y="307.17" width="8.67" height="13.15" transform="translate(192.19 819.67) rotate(-90)"/>
        <rect class="cls-2" x="484.53" y="307.17" width="8.67" height="13.15" transform="translate(175.13 802.62) rotate(-90)"/>
        <rect class="cls-2" x="467.48" y="307.17" width="8.67" height="13.15" transform="translate(158.08 785.56) rotate(-90)"/>
        <rect class="cls-2" x="450.43" y="307.17" width="8.67" height="13.15" transform="translate(141.03 768.51) rotate(-90)"/>
        <rect class="cls-3" x="500.2" y="377.9" width="10.44" height="19.83" transform="translate(117.61 893.25) rotate(-90)"/>
      </g>
      <g>
        <polygon class="cls-1" points="252.08 269.27 252.08 217.71 135.04 217.71 135.04 269.27 135.04 294.75 135.04 452.08 446.45 452.08 446.45 269.27 252.08 269.27"/>
        <polygon class="cls-5" points="352.52 303.64 234.3 303.64 206.75 303.64 169.12 303.64 169.12 449.41 234.3 449.41 234.3 381.86 352.52 381.86 352.52 303.64"/>
        <rect class="cls-7" x="373.82" y="298.2" width="17.02" height="44.06" transform="translate(62.1 702.57) rotate(-90)"/>
        <rect class="cls-7" x="373.82" y="320.24" width="17.02" height="44.06" transform="translate(40.06 724.61) rotate(-90)"/>
        <rect class="cls-7" x="373.82" y="342.28" width="17.02" height="44.06" transform="translate(18.02 746.65) rotate(-90)"/>
        <circle class="cls-7" cx="159.36" cy="241.01" r="10.62"/>
        <circle class="cls-7" cx="227.78" cy="241.01" r="10.62"/>
      </g>
      <g>
        <rect class="cls-4" x="2.01" y="2.01" width="52.15" height="89.78"/>
        <rect class="cls-3" x="4" width="48.15" height="4.01"/>
        <rect class="cls-3" x="-40.88" y="44.89" width="85.77" height="4.01" transform="translate(48.9 44.89) rotate(90)"/>
        <rect class="cls-2" x="4.01" y="56.26" width="48.14" height="33.51" transform="translate(56.16 146.04) rotate(180)"/>
        <rect class="cls-2" x="12.65" y="51.38" width="11.58" height="33.51" transform="translate(36.88 136.26) rotate(180)"/>
        <rect class="cls-2" x="32.2" y="51.38" width="11.58" height="33.51" transform="translate(75.99 136.26) rotate(180)"/>
      </g>
      <g>
        <polygon class="cls-4" points="776.23 2.01 649.26 2.01 649.26 130.75 776.23 130.75 776.23 81.71 820.67 81.71 820.67 2.01 776.23 2.01"/>
        <rect class="cls-3" x="726.01" y="0" width="34.21" height="4.01"/>
        <rect class="cls-3" x="669.12" width="34.21" height="4.01"/>
        <g>
          <rect x="820.04" y="71.49" width="1.27" height="5.33" transform="translate(894.82 -746.52) rotate(90)"/>
          <rect x="820.04" y="21.69" width="1.27" height="5.33" transform="translate(845.02 -796.32) rotate(90)"/>
          <rect class="cls-3" x="796.43" y="47.26" width="48.53" height="3.99" transform="translate(771.44 869.95) rotate(-90)"/>
        </g>
        <rect class="cls-8" x="652.12" y="32.76" width="85.19" height="64.37" transform="translate(629.76 759.66) rotate(-90)"/>
        <rect class="cls-2" x="629.92" y="51.72" width="69.15" height="26.45" transform="translate(599.54 729.44) rotate(-90)"/>
        <circle class="cls-2" cx="699.91" cy="62.04" r="10.62"/>
        <rect class="cls-2" x="680.19" y="4.42" width="15.46" height="20.41" transform="translate(673.3 702.54) rotate(-90)"/>
        <rect class="cls-2" x="702.8" y="4.42" width="15.46" height="20.41" transform="translate(695.9 725.15) rotate(-90)"/>
      </g>
      <g>
        <polyline class="cls-4" points="776.23 269.27 776.23 169.71 776.23 130.75 520.52 130.75 520.52 169.71 563.19 169.71 563.19 269.27 636.86 269.27"/>
        <rect class="cls-3" x="721.53" y="200.11" width="109.4" height="4.01" transform="translate(574.11 978.35) rotate(-90)"/>
        <g>
          <rect x="754.07" y="128.08" width="1.27" height="5.33"/>
          <rect x="664.93" y="128.08" width="1.27" height="5.33"/>
          <rect class="cls-3" x="666.2" y="128.75" width="87.89" height="3.99" transform="translate(1420.3 261.49) rotate(180)"/>
        </g>
        <rect class="cls-2" x="694.59" y="175.03" width="24.97" height="72.46" transform="translate(1414.16 422.52) rotate(180)"/>
        <rect class="cls-2" x="685.09" y="180.01" width="7.81" height="13.81" transform="translate(1377.99 373.84) rotate(180)"/>
        <rect class="cls-2" x="685.09" y="204.05" width="7.81" height="13.81" transform="translate(1377.99 421.9) rotate(180)"/>
        <rect class="cls-2" x="721.26" y="180.01" width="7.81" height="13.81" transform="translate(1450.32 373.84) rotate(180)"/>
        <rect class="cls-2" x="721.26" y="204.05" width="7.81" height="13.81" transform="translate(1450.32 421.9) rotate(180)"/>
        <rect class="cls-2" x="685.09" y="228.08" width="7.81" height="13.81" transform="translate(1377.99 469.96) rotate(180)"/>
        <rect class="cls-2" x="721.26" y="228.08" width="7.81" height="13.81" transform="translate(1450.32 469.96) rotate(180)"/>
        <rect class="cls-2" x="703.17" y="162.25" width="7.81" height="13.81" transform="translate(537.92 876.23) rotate(-90)"/>
        <rect class="cls-2" x="703.17" y="246.45" width="7.81" height="13.81" transform="translate(453.73 960.43) rotate(-90)"/>
        <rect class="cls-2" x="594.26" y="224.66" width="13.53" height="71.63" transform="translate(340.55 861.5) rotate(-90)"/>
        <rect class="cls-2" x="565.21" y="172.15" width="13.53" height="81.52" transform="translate(1143.95 425.82) rotate(180)"/>
      </g>
      <g>
        <rect class="cls-4" x="719.04" y="358.75" width="99.26" height="91.56"/>
        <rect class="cls-3" x="739.35" y="448.3" width="58.64" height="4.01"/>
        <g>
          <rect x="744.36" y="356.08" width="1.27" height="5.33"/>
          <rect x="722.98" y="356.08" width="1.27" height="5.33"/>
          <rect class="cls-3" x="724.25" y="356.75" width="20.11" height="3.99" transform="translate(1468.6 717.49) rotate(180)"/>
        </g>
        <rect class="cls-2" x="700.77" y="408.69" width="59.85" height="19.38" transform="translate(312.31 1149.06) rotate(-90)"/>
        <rect class="cls-2" x="721" y="428.93" width="95.23" height="19.38"/>
        <rect class="cls-2" x="749" y="403.06" width="19.38" height="19.38" transform="translate(140.67 -190.6) rotate(15.76)"/>
        <rect class="cls-2" x="776.32" y="368.98" width="19.38" height="19.38" transform="translate(851.07 1248.71) rotate(-120)"/>
        <rect class="cls-3" x="743.22" y="435.04" width="13.45" height="5.67"/>
        <rect class="cls-3" x="723.96" y="416.64" width="13.45" height="5.67" transform="translate(1150.16 -311.22) rotate(90)"/>
        <rect class="cls-2" x="803.45" y="360.74" width="12.78" height="87.56"/>
      </g>
      <g>
        <rect class="cls-4" x="765.56" y="314.3" width="52.74" height="44.44"/>
        <rect class="cls-3" x="781.01" y="312.3" width="32.54" height="4.01"/>
        <g>
          <rect x="764.93" y="352.03" width="1.27" height="5.33" transform="translate(1120.25 -410.87) rotate(90)"/>
          <rect x="764.93" y="330.65" width="1.27" height="5.33" transform="translate(1098.88 -432.24) rotate(90)"/>
          <rect class="cls-3" x="755.51" y="342.01" width="20.11" height="3.99" transform="translate(421.56 1109.57) rotate(-90)"/>
        </g>
        <rect class="cls-2" x="774.72" y="309.15" width="15.41" height="29.71" transform="translate(458.42 1106.43) rotate(-90)"/>
        <rect class="cls-2" x="799.97" y="334.04" width="15.41" height="17.12" transform="translate(465.08 1150.28) rotate(-90)"/>
      </g>
      <g>
        <rect class="cls-4" x="818.3" y="314.3" width="70.52" height="107.56"/>
        <rect class="cls-8" x="801.63" y="334.96" width="88.22" height="50.9" transform="translate(485.33 1206.15) rotate(-90)"/>
        <g>
          <rect x="868.8" y="311.64" width="1.27" height="5.33"/>
          <rect x="847.42" y="311.64" width="1.27" height="5.33"/>
          <rect class="cls-3" x="848.69" y="312.3" width="20.11" height="3.99" transform="translate(1717.49 628.6) rotate(180)"/>
        </g>
        <rect class="cls-2" x="803.67" y="357.82" width="59.15" height="6.94" transform="translate(471.96 1194.53) rotate(-90)"/>
      </g>
      <g>
        <rect class="cls-4" x="666.89" y="398.15" width="52.15" height="52.15"/>
        <g>
          <rect x="694.84" y="395.49" width="1.27" height="5.33"/>
          <rect x="673.46" y="395.49" width="1.27" height="5.33"/>
          <rect class="cls-3" x="674.73" y="396.16" width="20.11" height="3.99" transform="translate(1369.57 796.31) rotate(180)"/>
        </g>
        <rect class="cls-2" x="668.93" y="436.67" width="48.12" height="11.63"/>
        <rect class="cls-2" x="687.16" y="418.4" width="48.14" height="11.63" transform="translate(1135.45 -287.01) rotate(90)"/>
        <rect class="cls-2" x="663.27" y="431.02" width="22.91" height="11.63" transform="translate(1111.56 -237.9) rotate(90)"/>
      </g>
      <g>
        <rect class="cls-4" x="563.19" y="398.15" width="103.7" height="52.15"/>
        <rect class="cls-3" x="573.59" y="448.3" width="58.64" height="4.01"/>
        <g>
          <rect x="660.8" y="447.64" width="1.27" height="5.33"/>
          <rect x="639.42" y="447.64" width="1.27" height="5.33"/>
          <rect class="cls-3" x="640.69" y="448.3" width="20.11" height="3.99" transform="translate(1301.49 900.6) rotate(180)"/>
        </g>
        <g>
          <rect x="589.24" y="395.49" width="1.27" height="5.33"/>
          <rect x="567.87" y="395.49" width="1.27" height="5.33"/>
          <rect class="cls-3" x="569.14" y="396.16" width="20.11" height="3.99" transform="translate(1158.38 796.31) rotate(180)"/>
        </g>
        <rect class="cls-2" x="616.77" y="400.15" width="48.12" height="11.63"/>
        <rect class="cls-2" x="565.18" y="423.12" width="22.08" height="25.18"/>
        <rect class="cls-2" x="592.22" y="428.97" width="22.08" height="19.33"/>
      </g>
      <g>
        <rect class="cls-4" x="141.56" y="130.75" width="378.96" height="38.96"/>
        <g>
          <rect x="519.89" y="158.25" width="1.27" height="5.33" transform="translate(681.44 -359.61) rotate(90)"/>
          <rect x="519.89" y="136.87" width="1.27" height="5.33" transform="translate(660.06 -380.98) rotate(90)"/>
          <rect class="cls-3" x="510.47" y="148.23" width="20.11" height="3.99" transform="translate(370.3 670.75) rotate(-90)"/>
        </g>
      </g>
      <g>
        <rect class="cls-4" x="517.26" y="398.15" width="45.93" height="52.15"/>
        <g>
          <rect x="556.95" y="395.49" width="1.27" height="5.33"/>
          <rect x="535.57" y="395.49" width="1.27" height="5.33"/>
          <rect class="cls-3" x="536.84" y="396.16" width="20.11" height="3.99" transform="translate(1093.79 796.31) rotate(180)"/>
        </g>
        <rect class="cls-2" x="519.26" y="434.27" width="41.89" height="14.06"/>
      </g>
      <g>
        <rect class="cls-4" x="446.45" y="398.15" width="70.81" height="52.15"/>
        <rect class="cls-3" x="484.4" y="448.3" width="28.98" height="4.01"/>
        <g>
          <rect x="445.82" y="420.93" width="1.27" height="5.33" transform="translate(870.04 -22.86) rotate(90)"/>
          <rect x="445.82" y="399.55" width="1.27" height="5.33" transform="translate(848.67 -44.23) rotate(90)"/>
          <rect class="cls-3" x="436.4" y="410.91" width="20.11" height="3.99" transform="translate(33.55 859.36) rotate(-90)"/>
        </g>
        <rect class="cls-2" x="448.45" y="434.27" width="32.22" height="14.06"/>
        <rect class="cls-3" x="455.23" y="435.71" width="18.67" height="9.66"/>
        <rect class="cls-2" x="468.6" y="433.82" width="26.51" height="2.43" transform="translate(46.82 916.9) rotate(-90)"/>
        <rect class="cls-2" x="504.25" y="434.49" width="11.01" height="2.43" transform="translate(1019.51 871.41) rotate(180)"/>
        <rect class="cls-2" x="494.43" y="404.83" width="20.79" height="12.42"/>
        <rect class="cls-2" x="498.37" y="432.32" width="6.77" height="6.77" transform="translate(1003.5 871.41) rotate(180)"/>
        <rect class="cls-2" x="480.64" y="421.74" width="34.69" height="2.43"/>
      </g>
      <g>
        <rect class="cls-4" x="252.08" y="169.71" width="135.26" height="99.56"/>
        <rect class="cls-3" x="228.31" y="241.48" width="47.55" height="4.01" transform="translate(495.57 -8.59) rotate(90)"/>
        <rect class="cls-3" x="254.09" y="267.26" width="131.24" height="4.01" transform="translate(639.42 538.53) rotate(180)"/>
        <g>
          <rect x="359.23" y="167.04" width="1.27" height="5.33"/>
          <rect x="278.92" y="167.04" width="1.27" height="5.33"/>
          <rect class="cls-3" x="280.19" y="167.71" width="79.04" height="3.99" transform="translate(639.42 339.42) rotate(180)"/>
        </g>
        <rect class="cls-2" x="256.31" y="210.83" width="60" height="25.76" transform="translate(62.6 510.02) rotate(-90)"/>
        <rect class="cls-2" x="297.86" y="215.56" width="60" height="16.29" transform="translate(104.16 551.57) rotate(-90)"/>
        <rect class="cls-2" x="349.27" y="218.01" width="30.48" height="11.4" transform="translate(140.8 588.21) rotate(-90)"/>
        <rect class="cls-2" x="353.24" y="239.24" width="22.56" height="7.81"/>
        <rect class="cls-2" x="357.01" y="204.56" width="14.98" height="7.81"/>
      </g>
      <g>
        <rect class="cls-4" x="174.75" y="169.71" width="77.33" height="48"/>
        <rect class="cls-3" x="177.79" y="215.7" width="21.44" height="4.01"/>
        <g>
          <rect x="251.45" y="193.51" width="1.27" height="5.33" transform="translate(448.25 -55.91) rotate(90)"/>
          <rect x="251.45" y="172.13" width="1.27" height="5.33" transform="translate(426.88 -77.28) rotate(90)"/>
          <rect class="cls-3" x="242.03" y="183.49" width="20.11" height="3.99" transform="translate(66.59 437.57) rotate(-90)"/>
        </g>
        <rect class="cls-2" x="222.97" y="188.63" width="14.08" height="40.08" transform="translate(21.35 438.68) rotate(-90)"/>
        <rect class="cls-2" x="178.47" y="192.5" width="43.94" height="2.43" transform="translate(6.73 394.16) rotate(-90)"/>
        <rect class="cls-2" x="176.68" y="194.33" width="11.01" height="2.43"/>
        <rect class="cls-2" x="205.15" y="176.56" width="20.79" height="12.42" transform="translate(32.78 398.32) rotate(-90)"/>
        <rect class="cls-2" x="186.8" y="192.16" width="6.77" height="6.77"/>
        <rect class="cls-3" x="225.25" y="202.04" width="9.54" height="13.24" transform="translate(21.35 438.68) rotate(-90)"/>
      </g>
      <g>
        <polygon class="cls-4" points="101.86 169.71 101.86 217.71 101.86 279.93 135.04 279.93 135.04 217.71 174.75 217.71 174.75 169.71 101.86 169.71"/>
        <rect class="cls-3" x="138.3" y="215.7" width="29.7" height="4.01"/>
        <g>
          <rect x="168.5" y="167.04" width="1.27" height="5.33"/>
          <rect x="147.13" y="167.04" width="1.27" height="5.33"/>
          <rect class="cls-3" x="148.4" y="167.71" width="20.11" height="3.99" transform="translate(316.9 339.42) rotate(180)"/>
        </g>
      </g>
      <g>
        <rect class="cls-4" x="2.01" y="169.71" width="99.85" height="110.22"/>
        <g>
          <rect x="101.22" y="254.16" width="1.27" height="5.33" transform="translate(358.69 154.97) rotate(90)"/>
          <rect x="101.22" y="232.79" width="1.27" height="5.33" transform="translate(337.31 133.6) rotate(90)"/>
          <rect class="cls-3" x="91.8" y="244.15" width="20.11" height="3.99" transform="translate(-144.29 348) rotate(-90)"/>
        </g>
        <rect class="cls-2" x="67.2" y="156.45" width="17.41" height="47.93" transform="translate(-104.51 256.31) rotate(-90)"/>
        <rect class="cls-2" x="82.45" y="184.52" width="17.41" height="47.93" transform="translate(182.32 416.97) rotate(180)"/>
        <rect class="cls-2" x="4" y="171.71" width="17.41" height="106.21" transform="translate(25.41 449.62) rotate(180)"/>
        <rect class="cls-2" x="43.22" y="221.3" width="17.41" height="95.86" transform="translate(-217.3 321.16) rotate(-90)"/>
      </g>
      <g>
        <rect class="cls-4" x="2.01" y="279.93" width="133.04" height="142.52"/>
        <g>
          <rect x="128.23" y="277.27" width="1.27" height="5.33"/>
          <rect x="106.85" y="277.27" width="1.27" height="5.33"/>
          <rect class="cls-3" x="108.12" y="277.93" width="20.11" height="3.99" transform="translate(236.35 559.86) rotate(180)"/>
        </g>
        <g>
          <rect x="134.41" y="389.93" width="1.27" height="5.33" transform="translate(527.64 257.55) rotate(90)"/>
          <rect x="134.41" y="304.63" width="1.27" height="5.33" transform="translate(442.34 172.25) rotate(90)"/>
          <rect class="cls-3" x="93.05" y="347.95" width="84.03" height="3.99" transform="translate(-214.88 485.01) rotate(-90)"/>
        </g>
        <rect class="cls-8" x="26.1" y="341.02" width="85.19" height="64.37" transform="translate(137.4 746.41) rotate(180)"/>
        <rect class="cls-2" x="34.12" y="390.2" width="69.15" height="26.45" transform="translate(137.4 806.85) rotate(180)"/>
        <rect class="cls-2" x="33.57" y="281.93" width="69.15" height="9.83" transform="translate(136.29 573.69) rotate(180)"/>
        <rect class="cls-3" x="46.41" y="285.48" width="43.47" height="2.73" transform="translate(136.29 573.69) rotate(180)"/>
        <circle class="cls-2" cx="65.79" cy="368.01" r="10.62"/>
        <rect class="cls-2" x="10.64" y="369.79" width="15.46" height="20.41" transform="translate(36.75 759.99) rotate(180)"/>
        <rect class="cls-2" x="10.64" y="347.19" width="15.46" height="20.41" transform="translate(36.75 714.78) rotate(180)"/>
      </g>
      <g>
        <polygon class="cls-4" points="202.3 2.01 98.82 2.01 98.82 91.78 54.15 91.78 54.15 169.71 141.56 169.71 141.56 130.75 202.3 130.75 202.3 2.01"/>
        <rect class="cls-3" x="120.52" width="59.85" height="4.01"/>
        <g>
          <rect x="196.12" y="128.08" width="1.27" height="5.33"/>
          <rect x="174.75" y="128.08" width="1.27" height="5.33"/>
          <rect class="cls-3" x="176.01" y="128.75" width="20.11" height="3.99" transform="translate(372.14 261.49) rotate(180)"/>
        </g>
        <rect class="cls-2" x="56.16" y="93.78" width="16.51" height="73.93"/>
        <rect class="cls-2" x="89.55" y="117.81" width="16.51" height="83.29" transform="translate(257.26 61.65) rotate(90)"/>
        <rect class="cls-2" x="107.44" y="27.44" width="44.25" height="57.48" transform="translate(185.74 -73.39) rotate(90)"/>
        <rect class="cls-2" x="100.83" y="80.72" width="13.07" height="13.07" transform="translate(194.61 -20.11) rotate(90)"/>
        <rect class="cls-2" x="100.83" y="17.78" width="13.07" height="13.07" transform="translate(131.67 -83.05) rotate(90)"/>
        <rect class="cls-2" x="162.38" y="50.85" width="65.17" height="10.65" transform="translate(251.14 -138.79) rotate(90)"/>
        <rect class="cls-3" x="173.68" y="54.92" width="42.56" height="2.51" transform="translate(251.14 -138.79) rotate(90)"/>
      </g>
      <g>
        <rect class="cls-4" x="202.3" y="2.01" width="103.41" height="128.74"/>
        <rect class="cls-3" x="224.08" width="59.85" height="4.01"/>
        <g>
          <rect x="299.17" y="128.08" width="1.27" height="5.33"/>
          <rect x="277.79" y="128.08" width="1.27" height="5.33"/>
          <rect class="cls-3" x="279.06" y="128.75" width="20.11" height="3.99" transform="translate(578.23 261.49) rotate(180)"/>
        </g>
        <rect class="cls-2" x="210.88" y="27.44" width="44.25" height="57.48" transform="translate(289.19 -176.84) rotate(90)"/>
        <rect class="cls-2" x="204.28" y="80.72" width="13.07" height="13.07" transform="translate(298.06 -123.56) rotate(90)"/>
        <rect class="cls-2" x="231.75" y="84.03" width="17.26" height="72.18" transform="translate(360.5 -120.26) rotate(90)"/>
        <rect class="cls-2" x="204.28" y="17.78" width="13.07" height="13.07" transform="translate(235.12 -186.5) rotate(90)"/>
        <rect class="cls-2" x="265.83" y="50.85" width="65.17" height="10.65" transform="translate(354.59 -242.24) rotate(90)"/>
        <rect class="cls-3" x="277.13" y="54.92" width="42.56" height="2.51" transform="translate(354.59 -242.24) rotate(90)"/>
      </g>
      <g>
        <rect class="cls-4" x="305.71" y="66.38" width="56" height="64.37"/>
        <g>
          <rect x="305.08" y="100.29" width="1.27" height="5.33" transform="translate(408.66 -202.76) rotate(90)"/>
          <rect x="305.08" y="78.91" width="1.27" height="5.33" transform="translate(387.29 -224.13) rotate(90)"/>
          <rect class="cls-3" x="295.66" y="90.27" width="20.11" height="3.99" transform="translate(213.45 397.97) rotate(-90)"/>
        </g>
        <rect class="cls-2" x="320.02" y="89.06" width="60.38" height="19" transform="translate(448.77 -251.65) rotate(90)"/>
        <rect class="cls-2" x="307.71" y="109.75" width="47.19" height="19" transform="translate(662.6 238.5) rotate(180)"/>
      </g>
      <g>
        <rect class="cls-4" x="305.71" y="2.01" width="56" height="64.37"/>
        <rect class="cls-3" x="333.71" y="0" width="23.56" height="4.01"/>
        <g>
          <rect x="332.44" y="63.71" width="1.27" height="5.33"/>
          <rect x="311.06" y="63.71" width="1.27" height="5.33"/>
          <rect class="cls-3" x="312.33" y="64.38" width="20.11" height="3.99" transform="translate(644.77 132.75) rotate(180)"/>
        </g>
        <rect class="cls-2" x="305.03" y="6.71" width="17.19" height="11.79" transform="translate(301.02 326.23) rotate(-90)"/>
        <rect class="cls-2" x="329.46" y="29.97" width="30.23" height="2.47"/>
        <rect class="cls-2" x="317.72" y="15.76" width="25.96" height="2.47" transform="translate(313.71 347.68) rotate(-90)"/>
        <rect class="cls-2" x="348.51" y="16.53" width="11.18" height="2.47" transform="translate(708.2 35.52) rotate(180)"/>
        <rect class="cls-2" x="344.57" y="38.96" width="15.12" height="25.39"/>
        <rect class="cls-2" x="342.54" y="14.32" width="6.88" height="6.88" transform="translate(691.95 35.52) rotate(180)"/>
      </g>
      <g>
        <rect class="cls-4" x="417.71" y="2.01" width="102.81" height="128.74"/>
        <rect class="cls-3" x="438.39" y="0" width="60.06" height="4.01"/>
        <g>
          <rect x="442.73" y="128.08" width="1.27" height="5.33"/>
          <rect x="421.35" y="128.08" width="1.27" height="5.33"/>
          <rect class="cls-3" x="422.62" y="128.75" width="20.11" height="3.99" transform="translate(865.35 261.49) rotate(180)"/>
        </g>
        <rect class="cls-2" x="467.65" y="18.07" width="44.25" height="57.48" transform="translate(536.59 -442.97) rotate(90)"/>
        <rect class="cls-2" x="505.45" y="71.35" width="13.07" height="13.07" transform="translate(589.86 -434.1) rotate(90)"/>
        <rect class="cls-2" x="473.78" y="84" width="17.26" height="72.18" transform="translate(602.49 -362.32) rotate(90)"/>
        <rect class="cls-2" x="505.45" y="8.41" width="13.07" height="13.07" transform="translate(526.92 -497.04) rotate(90)"/>
        <rect class="cls-2" x="392.45" y="41.48" width="65.17" height="10.65" transform="translate(471.84 -378.22) rotate(90)"/>
        <rect class="cls-3" x="403.75" y="45.55" width="42.56" height="2.51" transform="translate(471.84 -378.22) rotate(90)"/>
      </g>
      <g>
        <rect class="cls-4" x="520.52" y="2.01" width="128.74" height="128.74"/>
        <rect class="cls-3" x="540.82" y="0" width="88.15" height="4.01"/>
        <g>
          <rect x="624.26" y="128.08" width="1.27" height="5.33"/>
          <rect x="544.24" y="128.08" width="1.27" height="5.33"/>
          <rect class="cls-3" x="545.51" y="128.75" width="78.75" height="3.99" transform="translate(1169.77 261.49) rotate(180)"/>
        </g>
        <rect class="cls-2" x="627.11" y="6.9" width="19.97" height="107.04" transform="translate(1274.2 120.83) rotate(-180)"/>
        <rect class="cls-2" x="571.11" y="6.89" width="19.97" height="41.04" transform="translate(1162.19 54.83) rotate(-180)"/>
        <rect class="cls-2" x="599.12" y="-21.1" width="19.97" height="75.97" transform="translate(592.22 625.98) rotate(-90)"/>
        <rect class="cls-2" x="598.02" y="52.97" width="14.64" height="31.93" transform="translate(1210.68 137.87) rotate(-180)"/>
        <rect class="cls-2" x="522.53" y="4.01" width="16.08" height="124.7" transform="translate(1061.14 132.73) rotate(-180)"/>
        <rect class="cls-3" x="528.9" y="36.16" width="3.31" height="60.42" transform="translate(1061.11 132.74) rotate(-180)"/>
      </g>
      <g>
        <rect class="cls-4" x="361.71" y="66.38" width="56" height="64.37"/>
        <g>
          <rect x="417.08" y="100.29" width="1.27" height="5.33" transform="translate(520.66 -314.76) rotate(90)"/>
          <rect x="417.08" y="78.91" width="1.27" height="5.33" transform="translate(499.29 -336.13) rotate(90)"/>
          <rect class="cls-3" x="407.66" y="90.27" width="20.11" height="3.99" transform="translate(325.45 509.97) rotate(-90)"/>
        </g>
        <rect class="cls-2" x="343.02" y="89.06" width="60.38" height="19" transform="translate(471.77 -274.65) rotate(90)"/>
        <rect class="cls-2" x="368.53" y="109.75" width="47.19" height="19"/>
      </g>
      <g>
        <rect class="cls-4" x="361.71" y="2.01" width="56" height="64.37"/>
        <rect class="cls-3" x="366.24" y="0" width="26.73" height="4.01"/>
        <g>
          <rect x="411.09" y="63.71" width="1.27" height="5.33"/>
          <rect x="389.71" y="63.71" width="1.27" height="5.33"/>
          <rect class="cls-3" x="390.98" y="64.38" width="20.11" height="3.99" transform="translate(802.06 132.75) rotate(180)"/>
        </g>
        <rect class="cls-2" x="401.2" y="6.71" width="17.19" height="11.79" transform="translate(397.19 422.4) rotate(-90)"/>
        <rect class="cls-2" x="363.73" y="29.97" width="30.23" height="2.47" transform="translate(757.69 62.4) rotate(-180)"/>
        <rect class="cls-2" x="379.75" y="15.76" width="25.96" height="2.47" transform="translate(375.73 409.71) rotate(-90)"/>
        <rect class="cls-2" x="363.73" y="16.53" width="11.18" height="2.47"/>
        <rect class="cls-2" x="363.73" y="38.96" width="15.12" height="25.39" transform="translate(742.57 103.32) rotate(-180)"/>
        <rect class="cls-2" x="374.01" y="14.32" width="6.88" height="6.88"/>
      </g>
      <g>
        <rect class="cls-4" x="2.01" y="91.78" width="52.15" height="77.93"/>
        <g>
          <rect x="49.46" y="167.04" width="1.27" height="5.33"/>
          <rect x="28.08" y="167.04" width="1.27" height="5.33"/>
          <rect class="cls-3" x="29.35" y="167.71" width="20.11" height="3.99" transform="translate(78.8 339.42) rotate(180)"/>
        </g>
        <rect class="cls-2" x="3.98" y="93.78" width="15.21" height="73.93" transform="translate(23.16 261.49) rotate(180)"/>
        <rect class="cls-3" x="6.72" y="123.71" width="9.69" height="12.45" transform="translate(23.12 259.86) rotate(180)"/>
        <rect class="cls-3" x="6.72" y="147.93" width="9.69" height="12.45" transform="translate(23.12 308.3) rotate(180)"/>
        <rect class="cls-3" x="6.72" y="99.48" width="9.69" height="12.45" transform="translate(23.12 211.41) rotate(180)"/>
      </g>
      <g>
        <rect class="cls-4" x="54.15" y="2.01" width="44.44" height="89.78"/>
        <rect class="cls-3" x="61.12" width="30.52" height="4.01"/>
        <g>
          <rect x="94.95" y="89.12" width="1.27" height="5.33"/>
          <rect x="73.57" y="89.12" width="1.27" height="5.33"/>
          <rect class="cls-3" x="74.84" y="89.79" width="20.11" height="3.99" transform="translate(169.79 183.57) rotate(180)"/>
        </g>
        <rect class="cls-2" x="56.16" y="49.7" width="14.08" height="40.08"/>
        <rect class="cls-2" x="56.15" y="26.58" width="40.43" height="2.43"/>
        <rect class="cls-2" x="86.19" y="17.78" width="10.42" height="2.43" transform="translate(182.79 37.99) rotate(180)"/>
        <rect class="cls-2" x="56.16" y="33.21" width="20.79" height="12.42"/>
        <rect class="cls-2" x="80.3" y="15.61" width="6.77" height="6.77" transform="translate(167.38 37.99) rotate(180)"/>
        <rect class="cls-3" x="58.44" y="63.12" width="9.54" height="13.24"/>
      </g>
    </g>
  </g>
</svg>