<?xml version="1.0" encoding="UTF-8"?>
<svg id="Layer_2" xmlns="http://www.w3.org/2000/svg" viewBox="0 0 323.42 183.94">
  <defs>
    <style>
      .cls-1 {
        stroke-width: 4.15px;
      }

      .cls-1, .cls-2 {
        fill: #d1d3d4;
        stroke: #231f20;
        stroke-miterlimit: 10;
      }

      .cls-3 {
        fill: #bcbec0;
      }

      .cls-4 {
        fill: #231f20;
      }

      .cls-2 {
        stroke-width: 4px;
      }

      .cls-5 {
        fill: #a7a9ac;
      }

      .cls-6 {
        fill: #e6e7e8;
      }
    </style>
  </defs>
  <g id="Layer_1-2" data-name="Layer_1">
    <g>
      <g>
        <polygon class="cls-6" points="90.79 88.52 90.79 1.33 0 1.33 0 183.86 90.79 183.86 132.38 183.86 132.38 88.52 90.79 88.52"/>
        <g>
          <path class="cls-3" d="M6.68,50.13h84.37c5.99,0,10.86,4.87,10.86,10.86v26.43c0,5.99-4.87,10.86-10.86,10.86H9.69c-11.16,0-20.22-9.06-20.22-20.22v-10.71c0-9.5,7.71-17.21,17.21-17.21Z" transform="translate(119.89 28.52) rotate(90)"/>
          <polygon class="cls-5" points="31.76 71.76 27.32 55.91 64.06 55.91 59.62 71.76 31.76 71.76"/>
          <polygon class="cls-5" points="30.87 118.43 31.76 102.58 59.26 102.58 60.5 118.43 30.87 118.43"/>
          <path class="cls-5" d="M65.49,60.59s-8.7,20.11-3.11,45.44c1.7-4.67,3.11-7.67,3.11-7.67v-37.78Z"/>
          <path class="cls-5" d="M25.89,60.59s8.7,20.11,3.11,45.44c-1.7-4.67-3.11-7.67-3.11-7.67v-37.78Z"/>
          <rect class="cls-3" x="17.59" y="63.68" width="3.87" height="4.19" transform="translate(85.29 46.25) rotate(90)"/>
          <rect class="cls-3" x="14.14" y="46.79" width="12.85" height="2.09" transform="translate(68.4 27.27) rotate(90)"/>
          <rect class="cls-3" x="64.38" y="46.79" width="12.85" height="2.09" transform="translate(118.64 -22.98) rotate(90)"/>
          <rect class="cls-3" x="14.14" y="108.46" width="12.85" height="2.09" transform="translate(130.07 88.93) rotate(90)"/>
          <rect class="cls-3" x="64.38" y="108.46" width="12.85" height="2.09" transform="translate(180.31 38.69) rotate(90)"/>
          <rect class="cls-3" x="69.92" y="63.68" width="3.87" height="4.19" transform="translate(137.63 -6.09) rotate(90)"/>
          <path class="cls-5" d="M35.32,20.48s-7.01,2.52-9.43,8l9.43-8Z"/>
          <path class="cls-5" d="M67.06,28.48l-9.43-8s7.01,2.52,9.43,8"/>
          <path class="cls-5" d="M59.34,129.55s7.01-2.52,9.43-8l-9.43,8Z"/>
          <path class="cls-5" d="M22.6,121.08l9.43,8s-7.01-2.52-9.43-8"/>
        </g>
      </g>
      <g>
        <rect class="cls-2" x="90.79" y="2" width="82.51" height="86.52"/>
        <rect class="cls-5" x="116.84" y="0" width="43.34" height="3.99"/>
        <g>
          <rect class="cls-4" x="95.75" y="85.85" width="1.27" height="5.33" transform="translate(192.76 177.04) rotate(-180)"/>
          <rect class="cls-4" x="117.12" y="85.85" width="1.27" height="5.33" transform="translate(235.51 177.04) rotate(-180)"/>
          <rect class="cls-5" x="97.01" y="86.52" width="20.11" height="3.99"/>
        </g>
        <rect class="cls-3" x="131.71" y="14.67" width="39.56" height="35.26"/>
        <rect class="cls-3" x="120.62" y="72.06" width="50.64" height="14.44"/>
        <rect class="cls-3" x="77.19" y="30.52" width="42.81" height="5.12" transform="translate(65.52 131.67) rotate(-90)"/>
        <rect class="cls-5" x="79.34" y="32.33" width="38.51" height="1.49" transform="translate(65.52 131.67) rotate(-90)"/>
      </g>
      <g>
        <polyline class="cls-2" points="173.3 90.51 173.3 2 303.4 2 303.4 40.52 320.75 57.85 320.75 119.63 173.3 119.63"/>
        <rect class="cls-5" x="209.85" y="0" width="56.64" height="3.99"/>
        <rect class="cls-5" x="304.73" y="79.65" width="32.04" height="4" transform="translate(402.4 -239.1) rotate(90)"/>
        <rect class="cls-5" x="290.69" y="19.97" width="25.43" height="4" transform="translate(325.37 -281.43) rotate(90)"/>
        <rect class="cls-3" x="231.08" y="60.81" width="62.81" height="23.85"/>
        <rect class="cls-3" x="206.9" y="108.52" width="111.18" height="9.11"/>
        <rect class="cls-3" x="165.03" y="17.5" width="56.35" height="33.28" transform="translate(159.07 227.35) rotate(-90)"/>
        <rect class="cls-3" x="205.65" y="41.05" width="13.91" height="15.16" transform="translate(163.98 261.24) rotate(-90)"/>
        <rect class="cls-3" x="299.94" y="83.08" width="15.34" height="14.88" transform="translate(316.86 -230) rotate(75.26)"/>
        <rect class="cls-3" x="205.65" y="24.76" width="13.91" height="15.16" transform="translate(180.26 244.95) rotate(-90)"/>
        <rect class="cls-3" x="205.65" y="8.47" width="13.91" height="15.16" transform="translate(196.55 228.66) rotate(-90)"/>
        <rect class="cls-5" x="228.79" y="111.52" width="61.67" height="3.11"/>
        <rect class="cls-4" x="302.77" y="5.95" width="1.27" height="5.34" transform="translate(294.78 312.02) rotate(-90)"/>
        <rect class="cls-4" x="302.77" y="32.65" width="1.27" height="5.34" transform="translate(268.08 338.72) rotate(-90)"/>
      </g>
      <g>
        <g>
          <g>
            <polyline class="cls-2" points="171.3 119.63 320.75 119.63 320.75 181.85 173.3 181.85 173.3 119.63"/>
            <rect class="cls-5" x="308.58" y="162.46" width="24.33" height="4" transform="translate(485.21 -156.29) rotate(90)"/>
            <g>
              <rect class="cls-4" x="320.12" y="121.74" width="1.27" height="5.34" transform="translate(196.34 445.16) rotate(-90)"/>
              <rect class="cls-4" x="320.12" y="145.11" width="1.27" height="5.34" transform="translate(172.98 468.52) rotate(-90)"/>
              <rect class="cls-5" x="309.7" y="134.09" width="22.1" height="4" transform="translate(456.84 -184.66) rotate(90)"/>
            </g>
          </g>
          <g>
            <rect class="cls-4" x="178.1" y="116.96" width="1.27" height="5.33" transform="translate(357.46 239.26) rotate(-180)"/>
            <rect class="cls-4" x="211.97" y="116.96" width="1.27" height="5.33" transform="translate(425.21 239.26) rotate(-180)"/>
            <rect class="cls-5" x="179.37" y="117.63" width="32.61" height="3.99"/>
          </g>
        </g>
        <rect class="cls-3" x="206.9" y="123.77" width="58.41" height="12.32"/>
        <rect class="cls-3" x="266.49" y="123.77" width="21.93" height="7.86"/>
        <rect class="cls-3" x="268.42" y="162.74" width="50.33" height="16.89"/>
        <rect class="cls-3" x="179.37" y="166.3" width="89.05" height="13.33"/>
        <rect class="cls-5" x="209.75" y="168.67" width="14.14" height="8.59"/>
        <rect class="cls-5" x="233.41" y="166.3" width="25.22" height="13.33"/>
      </g>
      <g>
        <rect class="cls-1" x="132.38" y="88.52" width="40.92" height="93.35" transform="translate(305.68 270.38) rotate(180)"/>
        <rect class="cls-5" x="137.83" y="179.87" width="30.42" height="3.99" transform="translate(306.07 363.73) rotate(180)"/>
        <g>
          <rect class="cls-4" x="172.67" y="111.33" width="1.27" height="5.33" transform="translate(287.3 -59.3) rotate(90)"/>
          <rect class="cls-4" x="172.67" y="89.96" width="1.27" height="5.33" transform="translate(265.92 -80.68) rotate(90)"/>
          <rect class="cls-5" x="163.25" y="101.31" width="20.11" height="3.99" transform="translate(69.99 276.61) rotate(-90)"/>
        </g>
        <rect class="cls-3" x="134.4" y="151.57" width="34.41" height="2.67" transform="translate(303.22 305.8) rotate(180)"/>
        <rect class="cls-3" x="134.42" y="161.18" width="11.74" height="6.56" transform="translate(280.58 328.91) rotate(180)"/>
        <rect class="cls-3" x="134.61" y="135.23" width="16.67" height="9.93" transform="translate(285.88 280.4) rotate(180)"/>
        <rect class="cls-3" x="134.41" y="97.34" width="10.12" height="32.04" transform="translate(278.94 226.73) rotate(180)"/>
      </g>
    </g>
  </g>
</svg>