<?xml version="1.0" encoding="UTF-8"?>
<svg id="Layer_2" xmlns="http://www.w3.org/2000/svg" viewBox="0 0 511.13 279.38">
  <defs>
    <style>
      .cls-1 {
        fill: #f1f2f2;
      }

      .cls-2 {
        fill: #bcbec0;
      }

      .cls-3 {
        fill: #a7a9ac;
      }

      .cls-4 {
        fill: #d1d3d4;
        stroke: #000;
        stroke-miterlimit: 10;
        stroke-width: 4px;
      }
    </style>
  </defs>
  <g id="Layer_1-2" data-name="Layer_1">
    <g>
      <g>
        <rect class="cls-1" x="266.88" width="244.26" height="157.02"/>
        <g>
          <path class="cls-2" d="M308.27,15.65h84.37c5.99,0,10.86,4.87,10.86,10.86v26.43c0,5.99-4.87,10.86-10.86,10.86h-81.36c-11.16,0-20.22-9.06-20.22-20.22v-10.71c0-9.5,7.71-17.21,17.21-17.21Z"/>
          <polygon class="cls-3" points="344.84 53.65 328.98 58.1 328.98 21.36 344.84 25.8 344.84 53.65"/>
          <polygon class="cls-3" points="391.5 54.54 375.65 53.65 375.65 26.16 391.5 24.91 391.5 54.54"/>
          <path class="cls-3" d="M333.67,19.93s20.11,8.7,45.44,3.11c-4.67-1.7-7.67-3.11-7.67-3.11h-37.78Z"/>
          <path class="cls-3" d="M333.67,59.53s20.11-8.7,45.44-3.11c-4.67,1.7-7.67,3.11-7.67,3.11h-37.78Z"/>
          <rect class="cls-2" x="336.91" y="63.8" width="3.87" height="4.19"/>
          <rect class="cls-2" x="314.48" y="63.8" width="12.85" height="2.09"/>
          <rect class="cls-2" x="314.48" y="13.56" width="12.85" height="2.09"/>
          <rect class="cls-2" x="376.15" y="63.8" width="12.85" height="2.09"/>
          <rect class="cls-2" x="376.15" y="13.56" width="12.85" height="2.09"/>
          <rect class="cls-2" x="336.91" y="11.47" width="3.87" height="4.19"/>
          <path class="cls-3" d="M293.56,50.1s2.52,7.01,8,9.43l-8-9.43Z"/>
          <path class="cls-3" d="M301.56,18.35l-8,9.43s2.52-7.01,8-9.43"/>
          <path class="cls-3" d="M402.63,26.07s-2.52-7.01-8-9.43l8,9.43Z"/>
          <path class="cls-3" d="M394.15,62.81l8-9.43s-2.52,7.01-8,9.43"/>
        </g>
        <g>
          <path class="cls-2" d="M308.27,86.23h84.37c5.99,0,10.86,4.87,10.86,10.86v26.43c0,5.99-4.87,10.86-10.86,10.86h-81.36c-11.16,0-20.22-9.06-20.22-20.22v-10.71c0-9.5,7.71-17.21,17.21-17.21Z"/>
          <polygon class="cls-3" points="344.84 124.23 328.98 128.67 328.98 91.93 344.84 96.38 344.84 124.23"/>
          <polygon class="cls-3" points="391.5 125.12 375.65 124.23 375.65 96.73 391.5 95.49 391.5 125.12"/>
          <path class="cls-3" d="M333.67,90.5s20.11,8.7,45.44,3.11c-4.67-1.7-7.67-3.11-7.67-3.11h-37.78Z"/>
          <path class="cls-3" d="M333.67,130.1s20.11-8.7,45.44-3.11c-4.67,1.7-7.67,3.11-7.67,3.11h-37.78Z"/>
          <rect class="cls-2" x="336.91" y="134.38" width="3.87" height="4.19"/>
          <rect class="cls-2" x="314.48" y="134.38" width="12.85" height="2.09"/>
          <rect class="cls-2" x="314.48" y="84.14" width="12.85" height="2.09"/>
          <rect class="cls-2" x="376.15" y="134.38" width="12.85" height="2.09"/>
          <rect class="cls-2" x="376.15" y="84.14" width="12.85" height="2.09"/>
          <rect class="cls-2" x="336.91" y="82.04" width="3.87" height="4.19"/>
          <path class="cls-3" d="M293.56,120.67s2.52,7.01,8,9.43l-8-9.43Z"/>
          <path class="cls-3" d="M301.56,88.93l-8,9.43s2.52-7.01,8-9.43"/>
          <path class="cls-3" d="M402.63,96.65s-2.52-7.01-8-9.43l8,9.43Z"/>
          <path class="cls-3" d="M394.15,133.39l8-9.43s-2.52,7.01-8,9.43"/>
        </g>
      </g>
      <g>
        <polygon class="cls-4" points="2.67 42.42 2.67 136.05 67.31 136.05 67.31 157.83 107.19 157.83 107.19 149.38 139.66 149.38 139.66 140.79 190.96 140.79 190.96 155.01 222.47 155.01 222.47 186.94 251.9 186.94 251.9 155.01 266.88 155.01 266.88 136.05 266.88 121.53 266.88 42.42 2.67 42.42"/>
        <rect class="cls-3" x="126.91" y="40.42" width="30.84" height="4.01" transform="translate(284.67 84.84) rotate(180)"/>
        <rect class="cls-3" x="190.07" y="40.42" width="51.86" height="4.01" transform="translate(432 84.84) rotate(180)"/>
        <rect class="cls-3" x="-19.36" y="79.02" width="44.06" height="4.01" transform="translate(83.69 78.36) rotate(90)"/>
        <g>
          <rect x="2.03" y="128.34" width="1.27" height="5.34" transform="translate(133.68 128.34) rotate(90)"/>
          <rect x="2.03" y="106.98" width="1.27" height="5.34" transform="translate(112.32 106.98) rotate(90)"/>
          <rect class="cls-3" x="-7.38" y="118.33" width="20.09" height="4" transform="translate(-117.66 123) rotate(-90)"/>
        </g>
        <g>
          <rect x="266.24" y="118.57" width="1.27" height="5.34" transform="translate(145.64 388.11) rotate(-90)"/>
          <rect x="266.24" y="147.92" width="1.27" height="5.34" transform="translate(116.29 417.46) rotate(-90)"/>
          <rect class="cls-3" x="252.83" y="133.91" width="28.08" height="4" transform="translate(402.79 -130.96) rotate(90)"/>
        </g>
        <rect class="cls-2" x="44.36" y="89.85" width="42.78" height="16.55"/>
        <rect class="cls-2" x="4.67" y="44.43" width="19.8" height="61.98"/>
        <rect class="cls-3" x="55.47" y="89.85" width="20.55" height="13.2"/>
        <rect class="cls-2" x="39.11" y="9.98" width="19.8" height="88.69" transform="translate(103.34 5.31) rotate(90)"/>
        <rect class="cls-3" x="12.07" y="72.45" width="9.72" height="14.68"/>
        <rect class="cls-2" x="123.73" y="64.48" width="26.53" height="48.89"/>
        <rect class="cls-2" x="152.12" y="69.88" width="8.3" height="14.67"/>
        <rect class="cls-2" x="152.12" y="93.44" width="8.3" height="14.67"/>
        <rect class="cls-2" x="113.57" y="69.88" width="8.3" height="14.67"/>
        <rect class="cls-2" x="113.57" y="93.44" width="8.3" height="14.67"/>
        <rect class="cls-2" x="132.85" y="51.14" width="8.3" height="14.67" transform="translate(78.52 195.47) rotate(-90)"/>
        <rect class="cls-2" x="132.85" y="112.05" width="8.3" height="14.67" transform="translate(17.61 256.38) rotate(-90)"/>
        <rect class="cls-2" x="176.02" y="50.1" width="28.15" height="71.14"/>
        <rect class="cls-2" x="222.25" y="66.56" width="18.96" height="28.93"/>
        <rect class="cls-2" x="251.9" y="46.15" width="12.98" height="73.24"/>
        <rect class="cls-3" x="257.09" y="59.53" width="2.6" height="46.47"/>
        <rect class="cls-2" x="119.55" y="129.26" width="8.58" height="27.64" transform="translate(-19.24 266.93) rotate(-90)"/>
      </g>
      <g>
        <polygon class="cls-4" points="190.96 155 190.96 140.79 139.66 140.79 139.66 149.38 107.19 149.38 107.19 157.83 67.31 157.83 67.31 186.94 222.47 186.94 222.47 155 190.96 155"/>
        <line class="cls-4" x1="139.66" y1="149.24" x2="139.66" y2="184.94"/>
        <g>
          <rect x="70.52" y="155.15" width="1.27" height="5.33" transform="translate(142.31 315.64) rotate(-180)"/>
          <rect x="91.9" y="155.15" width="1.27" height="5.33" transform="translate(185.06 315.64) rotate(-180)"/>
          <rect class="cls-3" x="71.79" y="155.82" width="20.11" height="3.99"/>
        </g>
        <g>
          <rect x="139.03" y="156.38" width="1.27" height="5.34" transform="translate(-19.38 298.71) rotate(-90)"/>
          <rect x="139.03" y="177.73" width="1.27" height="5.34" transform="translate(-40.74 320.07) rotate(-90)"/>
          <rect class="cls-3" x="129.62" y="167.72" width="20.09" height="4" transform="translate(309.39 30.06) rotate(90)"/>
        </g>
        <rect class="cls-2" x="141.66" y="142.77" width="34.36" height="15.05"/>
        <rect class="cls-3" x="149.8" y="145.78" width="14.44" height="12.04"/>
        <rect class="cls-2" x="177.37" y="169.73" width="27.93" height="2.47" transform="translate(362.29 -20.37) rotate(90)"/>
        <rect class="cls-2" x="209.15" y="169.19" width="11.18" height="2.47" transform="translate(429.47 340.86) rotate(-180)"/>
        <rect class="cls-2" x="203.17" y="166.99" width="6.88" height="6.88" transform="translate(413.22 340.86) rotate(-180)"/>
      </g>
      <g>
        <rect class="cls-4" x="2.67" y="136.05" width="64.64" height="50.89"/>
        <g>
          <rect x="42.35" y="133.39" width="1.27" height="5.33" transform="translate(85.97 272.1) rotate(-180)"/>
          <rect x="63.73" y="133.39" width="1.27" height="5.33" transform="translate(128.72 272.1) rotate(-180)"/>
          <rect class="cls-3" x="43.62" y="134.05" width="20.11" height="3.99"/>
        </g>
        <rect class="cls-2" x="12.07" y="163.56" width="21.39" height="21.39"/>
        <rect class="cls-2" x="42.35" y="167.04" width="17.9" height="17.9"/>
      </g>
      <g>
        <rect class="cls-4" x="2.67" y="186.94" width="97.26" height="90.44"/>
        <rect class="cls-3" x="-18.39" y="230.05" width="42.12" height="4.01" transform="translate(234.72 229.39) rotate(90)"/>
        <g>
          <rect x="72.3" y="184.27" width="1.27" height="5.33" transform="translate(145.87 373.88) rotate(-180)"/>
          <rect x="93.67" y="184.27" width="1.27" height="5.33" transform="translate(188.62 373.88) rotate(-180)"/>
          <rect class="cls-3" x="73.57" y="184.94" width="20.11" height="3.99"/>
        </g>
        <rect class="cls-2" x="16.52" y="234.21" width="55.73" height="26.41" transform="translate(-203.04 291.8) rotate(-90)"/>
        <rect class="cls-2" x="17.18" y="263.47" width="11.81" height="11.81" transform="translate(-246.29 292.47) rotate(-90)"/>
        <rect class="cls-2" x="59.45" y="263.47" width="11.81" height="11.81" transform="translate(-204.02 334.74) rotate(-90)"/>
        <rect class="cls-2" x="59.74" y="237.19" width="59.18" height="17.2" transform="translate(-156.46 335.12) rotate(-90)"/>
        <rect class="cls-2" x="37.52" y="164.92" width="8.51" height="56.54" transform="translate(-151.42 234.97) rotate(-90)"/>
        <rect class="cls-3" x="40.58" y="171.15" width="2.38" height="44.09" transform="translate(-151.42 234.97) rotate(-90)"/>
      </g>
      <g>
        <rect class="cls-4" x="99.93" y="186.94" width="90.52" height="90.44"/>
        <g>
          <rect x="104.77" y="184.27" width="1.27" height="5.33" transform="translate(210.81 373.88) rotate(-180)"/>
          <rect x="126.14" y="184.27" width="1.27" height="5.33" transform="translate(253.56 373.88) rotate(-180)"/>
          <rect class="cls-3" x="106.04" y="184.94" width="20.11" height="3.99"/>
        </g>
        <rect class="cls-2" x="127.62" y="234.21" width="55.73" height="26.41" transform="translate(-91.94 402.9) rotate(-90)"/>
        <rect class="cls-2" x="170.87" y="263.47" width="11.81" height="11.81" transform="translate(-92.6 446.15) rotate(-90)"/>
        <rect class="cls-2" x="128.6" y="263.47" width="11.81" height="11.81" transform="translate(-134.87 403.88) rotate(-90)"/>
        <rect class="cls-2" x="80.94" y="237.19" width="59.18" height="17.2" transform="translate(-135.26 356.32) rotate(-90)"/>
        <rect class="cls-2" x="153.83" y="164.92" width="8.51" height="56.54" transform="translate(-35.1 351.28) rotate(-90)"/>
        <rect class="cls-3" x="156.9" y="171.15" width="2.38" height="44.09" transform="translate(-35.1 351.28) rotate(-90)"/>
      </g>
      <g>
        <rect class="cls-4" x="190.45" y="186.94" width="61.46" height="90.44"/>
        <g>
          <rect x="225.86" y="184.27" width="1.27" height="5.33" transform="translate(453 373.88) rotate(-180)"/>
          <rect x="247.24" y="184.27" width="1.27" height="5.33" transform="translate(495.75 373.88) rotate(-180)"/>
          <rect class="cls-3" x="227.13" y="184.94" width="20.11" height="3.99"/>
        </g>
        <rect class="cls-2" x="156.74" y="224.64" width="86.45" height="15.05" transform="translate(-32.19 432.13) rotate(-90)"/>
        <rect class="cls-2" x="192.44" y="260.34" width="57.34" height="15.05"/>
      </g>
      <g>
        <polygon class="cls-4" points="297.42 155.01 251.9 155.01 251.9 186.94 297.42 186.94 297.42 277.38 394.61 277.38 394.61 186.94 394.61 155.01 297.42 155.01"/>
        <rect class="cls-3" x="333.24" y="153.01" width="63.36" height="4.01"/>
        <rect class="cls-3" x="378.42" y="171.2" width="32.37" height="4.01" transform="translate(567.81 -221.4) rotate(90)"/>
        <g>
          <rect x="251.27" y="157.85" width="1.27" height="5.34" transform="translate(91.38 412.42) rotate(-90)"/>
          <rect x="251.27" y="179.21" width="1.27" height="5.34" transform="translate(70.02 433.78) rotate(-90)"/>
          <rect class="cls-3" x="241.86" y="169.2" width="20.09" height="4" transform="translate(423.1 -80.7) rotate(90)"/>
        </g>
        <rect class="cls-2" x="337.1" y="219.87" width="17.82" height="93.19" transform="translate(612.49 -79.53) rotate(90)"/>
        <rect class="cls-2" x="337.34" y="186.94" width="55.26" height="43.06" transform="translate(729.95 416.94) rotate(-180)"/>
        <rect class="cls-2" x="281.84" y="207.35" width="39.75" height="2.24" transform="translate(510.18 -93.25) rotate(90)"/>
      </g>
      <g>
        <rect class="cls-4" x="251.9" y="186.94" width="45.52" height="90.44"/>
        <g>
          <rect x="271.9" y="184.27" width="1.27" height="5.33" transform="translate(545.07 373.88) rotate(-180)"/>
          <rect x="293.28" y="184.27" width="1.27" height="5.33" transform="translate(587.82 373.88) rotate(-180)"/>
          <rect class="cls-3" x="273.17" y="184.94" width="20.11" height="3.99"/>
        </g>
        <rect class="cls-2" x="244.24" y="198.59" width="34.36" height="15.05" transform="translate(55.3 467.54) rotate(-90)"/>
        <rect class="cls-3" x="255.7" y="200.1" width="14.44" height="12.04" transform="translate(56.8 469.04) rotate(-90)"/>
        <rect class="cls-2" x="253.89" y="245.31" width="41.46" height="2.47" transform="translate(549.25 493.08) rotate(-180)"/>
        <rect class="cls-2" x="269.75" y="268.55" width="11.18" height="2.47" transform="translate(5.55 545.12) rotate(-90)"/>
        <rect class="cls-2" x="271.9" y="258.22" width="6.88" height="6.88" transform="translate(13.68 536.99) rotate(-90)"/>
      </g>
    </g>
  </g>
</svg>