<?xml version="1.0" encoding="UTF-8"?>
<svg id="Layer_2" xmlns="http://www.w3.org/2000/svg" viewBox="0 0 395.45 240.41">
  <defs>
    <style>
      .cls-1 {
        fill: #bcbec0;
      }

      .cls-2 {
        fill: #a7a9ac;
      }

      .cls-3, .cls-4 {
        stroke: #000;
        stroke-miterlimit: 10;
        stroke-width: 4px;
      }

      .cls-3, .cls-5 {
        fill: #d1d3d4;
      }

      .cls-4 {
        fill: none;
      }
    </style>
  </defs>
  <g id="Layer_1-2" data-name="Layer_1">
    <g>
      <line class="cls-4" x1="189.67" y1="134.85" x2="187.89" y2="134.85"/>
      <polyline class="cls-3" points="248.78 134.85 281.67 134.85 281.67 101.19 157.67 101.19 157.67 134.85 189.67 134.85"/>
      <g>
        <polyline class="cls-3" points="187.89 134.85 46.63 134.85 46.63 237.75 187.89 237.75"/>
        <rect class="cls-2" x="83.28" y="235.74" width="58.54" height="4.01"/>
        <rect class="cls-1" x="151.59" y="171.59" width="23.27" height="42.89" transform="translate(-29.81 356.25) rotate(-90)"/>
        <rect class="cls-1" x="96.18" y="162.14" width="23.27" height="61.78" transform="translate(-85.22 300.85) rotate(-90)"/>
        <rect class="cls-1" x="93.45" y="92.08" width="16.73" height="106.37" transform="translate(-43.45 247.08) rotate(-90)"/>
        <rect class="cls-1" x="149.31" y="169.69" width="7.28" height="12.87" transform="translate(-23.18 329.07) rotate(-90)"/>
        <rect class="cls-1" x="169.97" y="169.69" width="7.28" height="12.87" transform="translate(-2.51 349.73) rotate(-90)"/>
        <rect class="cls-1" x="149.31" y="203.5" width="7.28" height="12.87" transform="translate(-57 362.88) rotate(-90)"/>
        <rect class="cls-1" x="169.97" y="203.5" width="7.28" height="12.87" transform="translate(-36.33 383.55) rotate(-90)"/>
        <rect class="cls-2" x="92.27" y="180.81" width="13.32" height="20.59" transform="translate(-92.18 290.03) rotate(-90)"/>
        <rect class="cls-2" x="111.15" y="137.23" width="12.22" height="16.07" transform="translate(-28.01 262.53) rotate(-90)"/>
      </g>
      <g>
        <rect class="cls-3" x=".15" y="191.26" width="48.33" height="44.63" transform="translate(-189.26 237.89) rotate(-90)"/>
        <rect class="cls-2" x="12.76" y="235.74" width="31.43" height="4.01"/>
        <g>
          <rect x="46" y="214.85" width="1.27" height="5.33" transform="translate(264.15 170.89) rotate(90)"/>
          <rect x="46" y="193.48" width="1.27" height="5.33" transform="translate(242.77 149.52) rotate(90)"/>
          <rect class="cls-2" x="36.58" y="204.84" width="20.11" height="3.99" transform="translate(-160.2 253.46) rotate(-90)"/>
        </g>
        <rect class="cls-1" x="21.43" y="218.6" width="20.03" height="14.26" transform="translate(-194.28 257.17) rotate(-90)"/>
        <rect class="cls-1" x="-11.04" y="206.29" width="44.63" height="14.26" transform="translate(-202.15 224.7) rotate(-90)"/>
      </g>
      <g>
        <rect class="cls-3" x="-2.97" y="139.82" width="54.56" height="44.63" transform="translate(-137.82 186.45) rotate(-90)"/>
        <g>
          <rect x="46" y="181.48" width="1.27" height="5.33" transform="translate(230.77 137.51) rotate(90)"/>
          <rect x="46" y="160.1" width="1.27" height="5.33" transform="translate(209.4 116.14) rotate(90)"/>
          <rect class="cls-2" x="36.58" y="171.46" width="20.11" height="3.99" transform="translate(-126.82 220.08) rotate(-90)"/>
        </g>
        <rect class="cls-1" x="4.01" y="136.86" width="20.03" height="20.03" transform="translate(-132.86 160.9) rotate(-90)"/>
      </g>
      <g>
        <polygon class="cls-3" points="281.67 134.85 333.22 134.85 393.44 134.85 393.44 55.38 333.22 55.38 333.22 2.01 281.67 2.01 281.67 134.85"/>
        <rect class="cls-2" x="369.74" y="92.99" width="47.42" height="4.01" transform="translate(488.44 -298.45) rotate(90)"/>
        <g>
          <rect x="281.03" y="126.04" width="1.27" height="5.33" transform="translate(410.38 -152.96) rotate(90)"/>
          <rect x="281.03" y="104.67" width="1.27" height="5.33" transform="translate(389 -174.33) rotate(90)"/>
          <rect class="cls-2" x="271.61" y="116.03" width="20.11" height="3.99" transform="translate(163.64 399.69) rotate(-90)"/>
        </g>
        <rect class="cls-1" x="243.78" y="43.89" width="97.18" height="17.42" transform="translate(344.98 -239.77) rotate(90)"/>
        <rect class="cls-1" x="307.44" y="-2.34" width="17.42" height="30.14" transform="translate(328.88 -303.43) rotate(90)"/>
        <rect class="cls-1" x="334.69" y="70.96" width="53.71" height="26.58" transform="translate(445.81 -277.3) rotate(90)"/>
        <rect class="cls-1" x="376.71" y="57.4" width="11.42" height="11.42" transform="translate(445.53 -319.31) rotate(90)"/>
        <rect class="cls-1" x="334.54" y="57.4" width="11.42" height="11.42" transform="translate(403.36 -277.14) rotate(90)"/>
        <rect class="cls-1" x="358.28" y="106.84" width="2.16" height="41.21" transform="translate(486.81 -231.91) rotate(90)"/>
      </g>
      <g>
        <rect class="cls-3" x="336.65" y="-1.42" width="53.38" height="60.22" transform="translate(334.64 392.03) rotate(-90)"/>
        <rect class="cls-2" x="380.55" y="15.93" width="25.34" height="4.01" transform="translate(411.16 -375.28) rotate(90)"/>
        <g>
          <rect x="332.59" y="46.72" width="1.27" height="5.33" transform="translate(382.61 -283.83) rotate(90)"/>
          <rect x="332.59" y="25.35" width="1.27" height="5.33" transform="translate(361.24 -305.21) rotate(90)"/>
          <rect class="cls-2" x="323.17" y="36.7" width="20.11" height="3.99" transform="translate(294.52 371.92) rotate(-90)"/>
        </g>
        <rect class="cls-1" x="374.23" y="41.6" width="17.19" height="11.79"/>
        <rect class="cls-1" x="349.11" y="17.89" width="30.23" height="2.47" transform="translate(345.1 383.35) rotate(-90)"/>
        <rect class="cls-1" x="365.46" y="31.77" width="25.96" height="2.47"/>
        <rect class="cls-1" x="372.07" y="8.37" width="11.18" height="2.47" transform="translate(387.27 -368.06) rotate(90)"/>
        <rect class="cls-1" x="340.19" y="-1.12" width="15.12" height="25.39" transform="translate(336.18 359.32) rotate(-90)"/>
        <rect class="cls-1" x="374.23" y="14.29" width="6.88" height="6.88" transform="translate(395.39 -359.94) rotate(90)"/>
      </g>
      <g>
        <rect class="cls-3" x="191.18" y="10.71" width="99.19" height="81.78" transform="translate(189.18 292.38) rotate(-90)"/>
        <g>
          <rect x="206.52" y="98.53" width="1.27" height="5.34" transform="translate(414.31 202.39) rotate(-180)"/>
          <rect x="227.88" y="98.53" width="1.27" height="5.34" transform="translate(457.03 202.39) rotate(-180)"/>
          <rect class="cls-2" x="207.79" y="99.2" width="20.09" height="4"/>
        </g>
        <rect class="cls-1" x="201.7" y="4.01" width="77.93" height="17.42"/>
        <rect class="cls-1" x="223.3" y="41.48" width="56.33" height="26.03"/>
        <rect class="cls-1" x="266.62" y="69.17" width="13.01" height="13.01"/>
      </g>
      <g>
        <rect class="cls-3" x="141.65" y="42.96" width="43.14" height="73.33" transform="translate(83.6 242.84) rotate(-90)"/>
        <g>
          <rect x="199.25" y="82.08" width="1.27" height="5.33" transform="translate(284.64 -115.14) rotate(90)"/>
          <rect x="199.25" y="60.71" width="1.27" height="5.33" transform="translate(263.26 -136.51) rotate(90)"/>
          <rect class="cls-2" x="189.84" y="72.06" width="20.11" height="3.99" transform="translate(125.83 273.95) rotate(-90)"/>
        </g>
        <rect class="cls-1" x="180.7" y="87.41" width="17.19" height="11.79"/>
        <rect class="cls-1" x="134.87" y="78.39" width="39.13" height="2.47" transform="translate(74.81 234.06) rotate(-90)"/>
        <rect class="cls-1" x="136.04" y="92.37" width="11.18" height="2.47" transform="translate(48.03 235.23) rotate(-90)"/>
        <rect class="cls-1" x="155.15" y="82.33" width="21.11" height="12.62" transform="translate(77.06 254.34) rotate(-90)"/>
        <rect class="cls-1" x="138.19" y="82.04" width="6.88" height="6.88" transform="translate(56.15 227.1) rotate(-90)"/>
      </g>
      <g>
        <rect class="cls-3" x="135.2" y="-6.64" width="56.04" height="73.33" transform="translate(133.19 193.25) rotate(-90)"/>
        <g>
          <rect x="199.25" y="50.17" width="1.27" height="5.33" transform="translate(252.72 -147.06) rotate(90)"/>
          <rect x="199.25" y="28.79" width="1.27" height="5.33" transform="translate(231.35 -168.43) rotate(90)"/>
          <rect class="cls-2" x="189.84" y="40.15" width="20.11" height="3.99" transform="translate(157.74 242.03) rotate(-90)"/>
        </g>
        <rect class="cls-1" x="111.18" y="21.34" width="52.08" height="17.42" transform="translate(167.27 -107.17) rotate(90)"/>
        <rect class="cls-1" x="143" y="4.01" width="54.89" height="17.42"/>
      </g>
      <g>
        <polygon class="cls-3" points="2 2.01 2 78.51 19.44 78.51 19.44 101.19 19.44 134.85 157.67 134.85 157.67 101.19 126.56 101.19 126.56 49.6 53.22 49.6 53.22 2.01 2 2.01"/>
        <rect class="cls-2" x="-4.28" y="104.23" width="47.42" height="4.01" transform="translate(125.66 86.81) rotate(90)"/>
        <g>
          <rect x="157.03" y="126.01" width="1.27" height="5.33" transform="translate(286.34 -28.99) rotate(90)"/>
          <rect x="157.03" y="104.63" width="1.27" height="5.33" transform="translate(264.96 -50.37) rotate(90)"/>
          <rect class="cls-2" x="147.61" y="115.99" width="20.11" height="3.99" transform="translate(39.68 275.65) rotate(-90)"/>
        </g>
        <rect class="cls-1" x="-23.54" y="31.54" width="72.51" height="17.42" transform="translate(-27.54 52.97) rotate(-90)"/>
        <rect class="cls-1" x="20.94" y="4" width="30.28" height="17.42"/>
        <rect class="cls-1" x="71.53" y="51.62" width="32.58" height="55.04"/>
        <rect class="cls-1" x="57.55" y="51.74" width="10.93" height="10.93"/>
        <rect class="cls-1" x="107.3" y="51.74" width="10.93" height="10.93"/>
        <rect class="cls-1" x="64.07" y="121.82" width="46.37" height="10.93"/>
        <rect class="cls-2" x="68.11" y="126.37" width="38.3" height="1.82"/>
      </g>
      <g>
        <rect class="cls-3" x="66.09" y="-10.86" width="47.59" height="73.33" transform="translate(64.09 115.69) rotate(-90)"/>
        <rect class="cls-2" x="104.11" width="18.07" height="4.01" transform="translate(226.3 4.01) rotate(180)"/>
        <g>
          <rect x="52.59" y="42.57" width="1.27" height="5.33" transform="translate(98.46 -7.98) rotate(90)"/>
          <rect x="52.59" y="21.2" width="1.27" height="5.33" transform="translate(77.08 -29.36) rotate(90)"/>
          <rect class="cls-2" x="43.17" y="32.55" width="20.11" height="3.99" transform="translate(18.67 87.77) rotate(-90)"/>
        </g>
        <rect class="cls-1" x="55.22" y="4.01" width="23.19" height="14.84"/>
        <rect class="cls-1" x="80.47" y="24.59" width="43.62" height="2.47" transform="translate(76.46 128.11) rotate(-90)"/>
        <rect class="cls-1" x="107.56" y="40.81" width="11.18" height="2.47" transform="translate(71.11 155.19) rotate(-90)"/>
        <rect class="cls-1" x="78.95" y="8.26" width="21.11" height="12.62" transform="translate(74.94 104.07) rotate(-90)"/>
        <rect class="cls-1" x="109.71" y="30.48" width="6.88" height="6.88" transform="translate(79.23 147.06) rotate(-90)"/>
      </g>
      <g>
        <polyline class="cls-3" points="187.89 237.75 347.3 237.75 347.3 134.85 187.89 134.85"/>
        <rect class="cls-2" x="189.65" y="235.74" width="24.58" height="4.01"/>
        <g>
          <rect x="217.96" y="235.08" width="1.27" height="5.34" transform="translate(437.19 475.49) rotate(-180)"/>
          <rect x="247.1" y="235.08" width="1.27" height="5.34" transform="translate(495.47 475.49) rotate(-180)"/>
          <rect class="cls-2" x="219.23" y="235.75" width="27.87" height="4"/>
        </g>
        <g>
          <rect x="346.66" y="171.49" width="1.27" height="5.33" transform="translate(521.45 -173.14) rotate(90)"/>
          <rect x="346.66" y="137.58" width="1.27" height="5.33" transform="translate(487.55 -207.05) rotate(90)"/>
          <rect class="cls-2" x="330.98" y="155.2" width="32.64" height="3.99" transform="translate(190.1 504.49) rotate(-90)"/>
        </g>
        <rect class="cls-5" x="186.85" y="132.85" width="65.04" height="4"/>
        <rect class="cls-1" x="271.76" y="187.32" width="27.45" height="69.41" transform="translate(63.46 507.5) rotate(-90)"/>
        <rect class="cls-1" x="323.27" y="222.02" width="13.73" height="13.73" transform="translate(101.25 559.02) rotate(-90)"/>
        <rect class="cls-1" x="317.19" y="179.12" width="26.15" height="20.15" transform="translate(141.07 519.45) rotate(-90)"/>
        <rect class="cls-1" x="224.88" y="179.12" width="26.15" height="20.15" transform="translate(48.76 427.15) rotate(-90)"/>
        <rect class="cls-1" x="276.83" y="165.24" width="18.63" height="33.11" transform="translate(104.35 467.95) rotate(-90)"/>
        <rect class="cls-1" x="273.27" y="117.97" width="12.81" height="50.67" transform="translate(136.36 422.98) rotate(-90)"/>
      </g>
    </g>
  </g>
</svg>