<?xml version="1.0" encoding="UTF-8"?>
<svg id="Layer_2" xmlns="http://www.w3.org/2000/svg" viewBox="0 0 510.85 296.78">
  <defs>
    <style>
      .cls-1 {
        fill: #bcbec0;
      }

      .cls-2 {
        fill: #a7a9ac;
      }

      .cls-3, .cls-4 {
        stroke: #000;
        stroke-miterlimit: 10;
        stroke-width: 4px;
      }

      .cls-3, .cls-5 {
        fill: #d1d3d4;
      }

      .cls-4 {
        fill: none;
      }

      .cls-6 {
        fill: #ccc;
      }
    </style>
  </defs>
  <g id="Layer_1-2" data-name="Layer_1">
    <g>
      <line class="cls-4" x1="289.34" y1="119.23" x2="332.93" y2="119.23"/>
      <g>
        <rect class="cls-3" x="2.01" y="119.23" width="47.15" height="132.44"/>
        <rect class="cls-2" x="-40.07" y="183.44" width="84.15" height="4.01" transform="translate(187.45 183.44) rotate(90)"/>
        <rect class="cls-1" x="31.85" y="121.24" width="15.3" height="128.43"/>
        <rect class="cls-1" x="25.58" y="162.54" width="20.68" height="20.68"/>
        <rect class="cls-2" x="38.26" y="186.19" width="8" height="14.76"/>
      </g>
      <g>
        <rect class="cls-3" x="429.45" y="2" width="56.49" height="75.15"/>
        <rect class="cls-2" x="475.18" y="21.37" width="21.51" height="4.01" transform="translate(462.57 509.31) rotate(-90)"/>
        <rect class="cls-2" x="475.18" y="62.14" width="21.51" height="4.01" transform="translate(421.79 550.09) rotate(-90)"/>
        <g>
          <rect x="433.95" y="74.49" width="1.27" height="5.33" transform="translate(869.18 154.31) rotate(-180)"/>
          <rect x="473.9" y="74.49" width="1.27" height="5.33" transform="translate(949.07 154.31) rotate(-180)"/>
          <rect class="cls-2" x="435.23" y="75.15" width="38.68" height="3.99"/>
        </g>
        <rect class="cls-1" x="468.78" y="4.01" width="15.16" height="66.77"/>
        <rect class="cls-1" x="451.89" y="12.62" width="15.16" height="15.16"/>
        <rect class="cls-1" x="451.89" y="50.1" width="15.16" height="15.16"/>
        <rect class="cls-2" x="473.42" y="53.6" width="5.88" height="8.16" transform="translate(40.21 -142.37) rotate(17.74)"/>
        <rect class="cls-2" x="472.82" y="15.41" width="5.88" height="8.16" transform="translate(43.93 220.11) rotate(-27.26)"/>
      </g>
      <g>
        <polyline class="cls-3" points="332.93 119.23 429.45 119.23 485.94 119.23 485.94 77.15 429.45 77.15 429.45 2 332.93 2"/>
        <rect class="cls-2" x="365.48" width="42.77" height="4.01" transform="translate(773.73 4.01) rotate(180)"/>
        <g>
          <rect x="485.31" y="79.37" width="1.27" height="5.34" transform="translate(403.9 567.98) rotate(-90)"/>
          <rect x="485.31" y="110.9" width="1.27" height="5.34" transform="translate(372.37 599.51) rotate(-90)"/>
          <rect class="cls-2" x="470.8" y="95.81" width="30.27" height="4" transform="translate(583.75 -388.13) rotate(90)"/>
        </g>
        <rect class="cls-1" x="345.96" y="10.78" width="25.33" height="66.37"/>
        <rect class="cls-6" x="339.49" y="17.51" width="77.11" height="56.1" transform="translate(332.49 423.61) rotate(-90)"/>
        <rect class="cls-1" x="323.52" y="32.13" width="70.21" height="26.86" transform="translate(313.07 404.19) rotate(-90)"/>
        <rect class="cls-1" x="385.97" y="40.01" width="70.21" height="9.98" transform="translate(376.08 466.08) rotate(-90)"/>
        <rect class="cls-2" x="399.01" y="43.61" width="44.14" height="2.77" transform="translate(376.08 466.08) rotate(-90)"/>
        <circle class="cls-1" cx="394.59" cy="42.61" r="10.78"/>
        <rect class="cls-1" x="379.37" y="75.07" width="19.69" height="19.69" transform="translate(742.88 268.28) rotate(-164.9)"/>
      </g>
      <g>
        <polyline class="cls-3" points="510.85 294.78 380.97 294.78 380.97 119.23 510.85 119.23"/>
        <g>
          <rect x="380.34" y="264.58" width="1.27" height="5.34" transform="translate(113.72 648.22) rotate(-90)"/>
          <rect x="380.34" y="285.94" width="1.27" height="5.34" transform="translate(92.36 669.58) rotate(-90)"/>
          <rect class="cls-2" x="370.92" y="275.93" width="20.09" height="4" transform="translate(658.9 -103.04) rotate(90)"/>
        </g>
        <path class="cls-1" d="M406.9,150.11h84.37c5.99,0,10.86,4.87,10.86,10.86v26.43c0,5.99-4.87,10.86-10.86,10.86h-81.36c-11.16,0-20.22-9.06-20.22-20.22v-10.71c0-9.5,7.71-17.21,17.21-17.21Z"/>
        <polygon class="cls-2" points="443.46 188.11 427.61 192.56 427.61 155.82 443.46 160.26 443.46 188.11"/>
        <polygon class="cls-2" points="490.13 189 474.28 188.11 474.28 160.62 490.13 159.37 490.13 189"/>
        <path class="cls-2" d="M432.3,154.39s20.11,8.7,45.44,3.11c-4.67-1.7-7.67-3.11-7.67-3.11h-37.78Z"/>
        <path class="cls-2" d="M432.3,193.99s20.11-8.7,45.44-3.11c-4.67,1.7-7.67,3.11-7.67,3.11h-37.78Z"/>
        <rect class="cls-1" x="435.54" y="198.26" width="3.87" height="4.19"/>
        <rect class="cls-1" x="413.11" y="198.26" width="12.85" height="2.09"/>
        <rect class="cls-1" x="413.11" y="148.02" width="12.85" height="2.09"/>
        <rect class="cls-1" x="474.78" y="198.26" width="12.85" height="2.09"/>
        <rect class="cls-1" x="474.78" y="148.02" width="12.85" height="2.09"/>
        <rect class="cls-1" x="435.54" y="145.93" width="3.87" height="4.19"/>
        <path class="cls-2" d="M392.19,184.56s2.52,7.01,8,9.43l-8-9.43Z"/>
        <path class="cls-2" d="M400.19,152.81l-8,9.43s2.52-7.01,8-9.43"/>
        <path class="cls-2" d="M501.26,160.53s-2.52-7.01-8-9.43l8,9.43Z"/>
        <path class="cls-2" d="M492.78,197.27l8-9.43s-2.52,7.01-8,9.43"/>
        <path class="cls-1" d="M406.9,216.92h84.37c5.99,0,10.86,4.87,10.86,10.86v26.43c0,5.99-4.87,10.86-10.86,10.86h-81.36c-11.16,0-20.22-9.06-20.22-20.22v-10.71c0-9.5,7.71-17.21,17.21-17.21Z"/>
        <polygon class="cls-2" points="443.46 254.92 427.61 259.37 427.61 222.63 443.46 227.07 443.46 254.92"/>
        <polygon class="cls-2" points="490.13 255.81 474.28 254.92 474.28 227.42 490.13 226.18 490.13 255.81"/>
        <path class="cls-2" d="M432.3,221.19s20.11,8.7,45.44,3.11c-4.67-1.7-7.67-3.11-7.67-3.11h-37.78Z"/>
        <path class="cls-2" d="M432.3,260.8s20.11-8.7,45.44-3.11c-4.67,1.7-7.67,3.11-7.67,3.11h-37.78Z"/>
        <rect class="cls-1" x="435.54" y="265.07" width="3.87" height="4.19"/>
        <rect class="cls-1" x="413.11" y="265.07" width="12.85" height="2.09"/>
        <rect class="cls-1" x="413.11" y="214.83" width="12.85" height="2.09"/>
        <rect class="cls-1" x="474.78" y="265.07" width="12.85" height="2.09"/>
        <rect class="cls-1" x="474.78" y="214.83" width="12.85" height="2.09"/>
        <rect class="cls-1" x="435.54" y="212.74" width="3.87" height="4.19"/>
        <path class="cls-2" d="M392.19,251.37s2.52,7.01,8,9.43l-8-9.43Z"/>
        <path class="cls-2" d="M400.19,219.62l-8,9.43s2.52-7.01,8-9.43"/>
        <path class="cls-2" d="M501.26,227.34s-2.52-7.01-8-9.43l8,9.43Z"/>
        <path class="cls-2" d="M492.78,264.08l8-9.43s-2.52,7.01-8,9.43"/>
      </g>
      <line class="cls-4" x1="289.34" y1="119.23" x2="332.93" y2="119.23"/>
      <polyline class="cls-3" points="289.34 119.23 298.83 119.23 298.83 150.04 199.2 150.04 199.2 119.23 259.17 119.23"/>
      <g>
        <rect class="cls-3" x="298.83" y="119.23" width="82.14" height="132.44"/>
        <rect class="cls-2" x="311.58" y="249.67" width="56.64" height="4.01" transform="translate(679.8 503.34) rotate(180)"/>
        <g>
          <rect x="298.2" y="121.55" width="1.27" height="5.34" transform="translate(174.61 423.05) rotate(-90)"/>
          <rect x="298.2" y="142.91" width="1.27" height="5.34" transform="translate(153.25 444.41) rotate(-90)"/>
          <rect class="cls-2" x="288.79" y="132.9" width="20.09" height="4" transform="translate(433.73 -163.93) rotate(90)"/>
        </g>
        <rect class="cls-1" x="328.85" y="121.23" width="50.12" height="18"/>
        <rect class="cls-1" x="360.97" y="139.02" width="18" height="26.57"/>
        <rect class="cls-1" x="319.3" y="191.5" width="59.67" height="39.73"/>
        <rect class="cls-1" x="367.11" y="177.41" width="11.87" height="11.87"/>
        <rect class="cls-1" x="367.11" y="235.06" width="11.87" height="11.87"/>
        <rect class="cls-1" x="270.68" y="206.37" width="70.21" height="9.98" transform="translate(94.43 517.15) rotate(-90)"/>
        <rect class="cls-2" x="283.72" y="209.97" width="44.14" height="2.77" transform="translate(94.43 517.15) rotate(-90)"/>
      </g>
      <g>
        <rect class="cls-3" x="257.76" y="150.04" width="41.07" height="101.63"/>
        <rect class="cls-2" x="264.73" y="249.74" width="27.13" height="4.01" transform="translate(556.59 503.49) rotate(180)"/>
        <g>
          <rect x="261.19" y="147.37" width="1.27" height="5.33" transform="translate(523.65 300.08) rotate(-180)"/>
          <rect x="282.57" y="147.37" width="1.27" height="5.33" transform="translate(566.4 300.08) rotate(-180)"/>
          <rect class="cls-2" x="262.46" y="148.04" width="20.11" height="3.99"/>
        </g>
        <rect class="cls-1" x="282.57" y="156.26" width="14.3" height="40.7"/>
        <rect class="cls-1" x="259.76" y="220.19" width="37.1" height="2.47"/>
        <rect class="cls-1" x="285.69" y="232.69" width="11.18" height="2.47" transform="translate(582.55 467.84) rotate(-180)"/>
        <rect class="cls-1" x="275.76" y="202.33" width="21.11" height="12.62"/>
        <rect class="cls-1" x="279.71" y="230.48" width="6.88" height="6.88" transform="translate(566.3 467.84) rotate(-180)"/>
        <rect class="cls-2" x="284.88" y="169.89" width="9.68" height="13.45"/>
      </g>
      <g>
        <rect class="cls-3" x="176.81" y="150.04" width="80.95" height="101.63"/>
        <rect class="cls-2" x="188.15" y="249.74" width="58.27" height="4.01" transform="translate(434.57 503.49) rotate(180)"/>
        <g>
          <rect x="231.97" y="147.37" width="1.27" height="5.33" transform="translate(465.2 300.08) rotate(-180)"/>
          <rect x="253.34" y="147.37" width="1.27" height="5.33" transform="translate(507.95 300.08) rotate(-180)"/>
          <rect class="cls-2" x="233.23" y="148.04" width="20.11" height="3.99"/>
        </g>
        <rect class="cls-1" x="178.8" y="188.26" width="62.42" height="45.26" transform="translate(420.02 421.78) rotate(180)"/>
        <rect class="cls-1" x="178.8" y="152.04" width="47.16" height="17.85" transform="translate(404.77 321.93) rotate(180)"/>
        <rect class="cls-1" x="250.28" y="181.37" width="5.41" height="59.03" transform="translate(505.97 421.78) rotate(180)"/>
        <rect class="cls-2" x="251.91" y="187.84" width="2.15" height="46.09" transform="translate(505.97 421.78) rotate(180)"/>
        <rect class="cls-1" x="178.8" y="235.73" width="12.17" height="12.17" transform="translate(369.77 483.62) rotate(180)"/>
        <rect class="cls-1" x="178.8" y="173.67" width="12.17" height="12.17" transform="translate(369.77 359.5) rotate(180)"/>
      </g>
      <g>
        <polygon class="cls-3" points="199.2 119.23 176.81 119.23 49.15 119.23 49.15 150.04 49.15 164.78 90.96 164.78 90.96 251.67 176.81 251.67 176.81 164.78 176.81 150.04 199.2 150.04 199.2 119.23"/>
        <rect class="cls-2" x="104.75" y="249.74" width="58.27" height="4.01" transform="translate(267.77 503.49) rotate(180)"/>
        <g>
          <rect x="198.56" y="121.29" width="1.27" height="5.34" transform="translate(75.24 323.15) rotate(-90)"/>
          <rect x="198.56" y="142.65" width="1.27" height="5.34" transform="translate(53.88 344.51) rotate(-90)"/>
          <rect class="cls-2" x="189.15" y="132.63" width="20.09" height="4" transform="translate(333.83 -64.56) rotate(90)"/>
        </g>
        <rect class="cls-1" x="92.93" y="186.56" width="62.42" height="45.26" transform="translate(248.28 418.38) rotate(180)"/>
        <rect class="cls-1" x="51.15" y="121.24" width="95.03" height="17.85" transform="translate(197.33 260.33) rotate(180)"/>
        <rect class="cls-1" x="168.19" y="179.67" width="5.41" height="59.03" transform="translate(341.78 418.38) rotate(180)"/>
        <rect class="cls-2" x="169.82" y="186.14" width="2.15" height="46.09" transform="translate(341.78 418.38) rotate(180)"/>
        <rect class="cls-1" x="92.93" y="234.02" width="12.17" height="12.17" transform="translate(198.02 480.21) rotate(180)"/>
        <rect class="cls-1" x="92.93" y="171.97" width="12.17" height="12.17" transform="translate(198.02 356.1) rotate(180)"/>
        <rect class="cls-1" x="51.15" y="121.24" width="12" height="41.3" transform="translate(114.29 283.78) rotate(180)"/>
      </g>
      <g>
        <rect class="cls-3" x="49.15" y="164.78" width="41.81" height="86.89"/>
        <rect class="cls-2" x="54.94" y="249.67" width="30.25" height="4.01" transform="translate(140.12 503.34) rotate(180)"/>
        <g>
          <rect x="65.54" y="162.12" width="1.27" height="5.33" transform="translate(132.35 329.56) rotate(-180)"/>
          <rect x="86.92" y="162.12" width="1.27" height="5.33" transform="translate(175.1 329.56) rotate(-180)"/>
          <rect class="cls-2" x="66.81" y="162.78" width="20.11" height="3.99"/>
        </g>
        <rect class="cls-1" x="51.15" y="167.11" width="14.3" height="40.7"/>
        <rect class="cls-1" x="51.17" y="230.97" width="37.77" height="2.47"/>
        <rect class="cls-1" x="51.17" y="228.82" width="37.77" height="2.47"/>
        <rect class="cls-1" x="77.43" y="240.03" width="11.18" height="2.47" transform="translate(166.04 482.54) rotate(-180)"/>
        <rect class="cls-1" x="51.15" y="211.93" width="21.11" height="12.62"/>
        <rect class="cls-1" x="71.46" y="237.83" width="6.88" height="6.88" transform="translate(149.79 482.54) rotate(-180)"/>
        <rect class="cls-2" x="53.46" y="180.73" width="9.68" height="13.45"/>
      </g>
      <g>
        <polyline class="cls-3" points="332.93 2 144.23 2 144.23 119.23 332.93 119.23"/>
        <rect class="cls-2" x="184" width="77.76" height="4.01" transform="translate(445.77 4.01) rotate(180)"/>
        <rect class="cls-5" x="238.52" y="117.23" width="54.22" height="4" transform="translate(531.25 238.46) rotate(-180)"/>
        <rect class="cls-1" x="283.25" y="31.79" width="23.27" height="42.89"/>
        <rect class="cls-1" x="308.05" y="36.52" width="7.28" height="12.87"/>
        <rect class="cls-1" x="308.05" y="57.19" width="7.28" height="12.87"/>
        <rect class="cls-1" x="274.34" y="36.52" width="7.28" height="12.87"/>
        <rect class="cls-1" x="177.08" y="4.02" width="87.66" height="19.08"/>
        <rect class="cls-2" x="199.68" y="57.19" width="18.46" height="14.24"/>
        <rect class="cls-1" x="172.74" y="74.84" width="72.34" height="10.09"/>
        <rect class="cls-1" x="228.12" y="86.32" width="16.96" height="10.09"/>
        <rect class="cls-1" x="209.66" y="86.32" width="16.96" height="10.09"/>
        <rect class="cls-1" x="191.2" y="86.32" width="16.96" height="10.09"/>
        <rect class="cls-1" x="172.74" y="86.32" width="16.96" height="10.09"/>
        <rect class="cls-1" x="274.34" y="57.19" width="7.28" height="12.87"/>
        <rect class="cls-1" x="291.25" y="20.3" width="7.28" height="12.87" transform="translate(268.16 321.62) rotate(-90)"/>
        <rect class="cls-1" x="291.25" y="73.62" width="7.28" height="12.87" transform="translate(214.84 374.94) rotate(-90)"/>
        <rect class="cls-2" x="209.92" y="8.51" width="21.97" height="10.09"/>
      </g>
      <g>
        <rect class="cls-3" x="2.01" y="2" width="142.22" height="117.22"/>
        <rect class="cls-2" x="-54.55" y="58.55" width="113.11" height="4.01" transform="translate(62.57 58.55) rotate(90)"/>
        <rect class="cls-2" x="4.01" width="138.22" height="4.01" transform="translate(146.24 4.01) rotate(180)"/>
        <g>
          <rect x="143.59" y="26.19" width="1.27" height="5.34" transform="translate(115.37 173.09) rotate(-90)"/>
          <rect x="143.59" y="90.74" width="1.27" height="5.34" transform="translate(50.82 237.63) rotate(-90)"/>
          <rect class="cls-2" x="112.58" y="59.14" width="63.28" height="4" transform="translate(205.36 -83.08) rotate(90)"/>
        </g>
        <rect class="cls-1" x="63.36" y="17" width="13.1" height="13.1"/>
        <rect class="cls-1" x="45.72" y="24.76" width="13.1" height="13.1" transform="translate(-6.83 46.13) rotate(-45)"/>
        <rect class="cls-1" x="80.7" y="24.76" width="13.1" height="13.1" transform="translate(47.69 -52.52) rotate(45)"/>
        <rect class="cls-1" x="63.06" y="66.18" width="13.1" height="13.1" transform="translate(139.21 145.47) rotate(180)"/>
        <rect class="cls-1" x="80.7" y="58.43" width="13.1" height="13.1" transform="translate(194.89 49.24) rotate(135)"/>
        <rect class="cls-1" x="45.72" y="58.43" width="13.1" height="13.1" transform="translate(43.28 147.89) rotate(-135)"/>
        <rect class="cls-1" x="39.27" y="41.4" width="13.1" height="13.1" transform="translate(-2.12 93.77) rotate(-90)"/>
        <rect class="cls-1" x="87.25" y="41.4" width="13.1" height="13.1" transform="translate(45.85 141.74) rotate(-90)"/>
        <circle class="cls-2" cx="69.91" cy="47.95" r="22.14"/>
        <rect class="cls-1" x="4.01" y="90.37" width="28.67" height="26.59"/>
        <rect class="cls-1" x="32.68" y="99.12" width="87.95" height="17.84"/>
        <rect class="cls-2" x="56.55" y="101.49" width="19.75" height="9.25"/>
        <rect class="cls-2" x="8.47" y="95.12" width="19.75" height="21.84"/>
      </g>
    </g>
  </g>
</svg>