<?xml version="1.0" encoding="UTF-8"?>
<svg id="Layer_2" xmlns="http://www.w3.org/2000/svg" viewBox="0 0 478.33 196.74">
  <defs>
    <style>
      .cls-1 {
        fill: #f1f2f2;
      }

      .cls-2 {
        fill: #bcbec0;
      }

      .cls-3 {
        fill: #231f20;
      }

      .cls-4 {
        fill: #d1d3d4;
        stroke: #231f20;
        stroke-miterlimit: 10;
        stroke-width: 4px;
      }

      .cls-5 {
        fill: #a7a9ac;
      }

      .cls-6 {
        fill: #e6e7e8;
      }
    </style>
  </defs>
  <g id="Layer_1-2" data-name="Layer_1">
    <g>
      <g>
        <rect class="cls-1" x="322.78" y=".11" width="155.55" height="196.12"/>
        <rect class="cls-1" x="279.85" y="104.34" width="155.55" height="91.89"/>
        <g>
          <path class="cls-2" d="M356.64,21.14h84.37c5.99,0,10.86,4.87,10.86,10.86v26.43c0,5.99-4.87,10.86-10.86,10.86h-81.36c-11.16,0-20.22-9.06-20.22-20.22v-10.71c0-9.5,7.71-17.21,17.21-17.21Z"/>
          <polygon class="cls-5" points="393.21 59.14 377.35 63.58 377.35 26.84 393.21 31.28 393.21 59.14"/>
          <polygon class="cls-5" points="439.87 60.03 424.02 59.14 424.02 31.64 439.87 30.4 439.87 60.03"/>
          <path class="cls-5" d="M382.04,25.41s20.11,8.7,45.44,3.11c-4.67-1.7-7.67-3.11-7.67-3.11h-37.78Z"/>
          <path class="cls-5" d="M382.04,65.01s20.11-8.7,45.44-3.11c-4.67,1.7-7.67,3.11-7.67,3.11h-37.78Z"/>
          <rect class="cls-2" x="385.28" y="69.28" width="3.87" height="4.19"/>
          <rect class="cls-2" x="362.85" y="69.28" width="12.85" height="2.09"/>
          <rect class="cls-2" x="362.85" y="19.04" width="12.85" height="2.09"/>
          <rect class="cls-2" x="424.52" y="69.28" width="12.85" height="2.09"/>
          <rect class="cls-2" x="424.52" y="19.04" width="12.85" height="2.09"/>
          <rect class="cls-2" x="385.28" y="16.95" width="3.87" height="4.19"/>
          <path class="cls-5" d="M341.93,55.58s2.52,7.01,8,9.43l-8-9.43Z"/>
          <path class="cls-5" d="M349.93,23.84l-8,9.43s2.52-7.01,8-9.43"/>
          <path class="cls-5" d="M451,31.56s-2.52-7.01-8-9.43l8,9.43Z"/>
          <path class="cls-5" d="M442.53,68.3l8-9.43s-2.52,7.01-8,9.43"/>
        </g>
        <g>
          <path class="cls-2" d="M356.64,91.71h84.37c5.99,0,10.86,4.87,10.86,10.86v26.43c0,5.99-4.87,10.86-10.86,10.86h-81.36c-11.16,0-20.22-9.06-20.22-20.22v-10.71c0-9.5,7.71-17.21,17.21-17.21Z"/>
          <polygon class="cls-5" points="393.21 129.71 377.35 134.15 377.35 97.41 393.21 101.86 393.21 129.71"/>
          <polygon class="cls-5" points="439.87 130.6 424.02 129.71 424.02 102.21 439.87 100.97 439.87 130.6"/>
          <path class="cls-5" d="M382.04,95.98s20.11,8.7,45.44,3.11c-4.67-1.7-7.67-3.11-7.67-3.11h-37.78Z"/>
          <path class="cls-5" d="M382.04,135.59s20.11-8.7,45.44-3.11c-4.67,1.7-7.67,3.11-7.67,3.11h-37.78Z"/>
          <rect class="cls-2" x="385.28" y="139.86" width="3.87" height="4.19"/>
          <rect class="cls-2" x="362.85" y="139.86" width="12.85" height="2.09"/>
          <rect class="cls-2" x="362.85" y="89.62" width="12.85" height="2.09"/>
          <rect class="cls-2" x="424.52" y="139.86" width="12.85" height="2.09"/>
          <rect class="cls-2" x="424.52" y="89.62" width="12.85" height="2.09"/>
          <rect class="cls-2" x="385.28" y="87.53" width="3.87" height="4.19"/>
          <path class="cls-5" d="M341.93,126.16s2.52,7.01,8,9.43l-8-9.43Z"/>
          <path class="cls-5" d="M349.93,94.41l-8,9.43s2.52-7.01,8-9.43"/>
          <path class="cls-5" d="M451,102.13s-2.52-7.01-8-9.43l8,9.43Z"/>
          <path class="cls-5" d="M442.53,138.87l8-9.43s-2.52,7.01-8,9.43"/>
        </g>
        <rect class="cls-6" x="279.85" y="104.34" width="42.26" height="91.89"/>
      </g>
      <rect class="cls-4" x="130.4" y="75" width="95.04" height="29.33"/>
      <g>
        <polygon class="cls-4" points="253.39 2 253.39 75 225.44 75 225.44 104.34 253.39 104.34 322.11 104.34 322.11 2 253.39 2"/>
        <rect class="cls-5" x="300.49" y="52.28" width="43.23" height="4.01" transform="translate(376.39 -267.83) rotate(90)"/>
        <rect class="cls-2" x="293.48" y="4" width="26.62" height="57.89" transform="translate(613.58 65.9) rotate(180)"/>
        <rect class="cls-2" x="255.39" y="4" width="17.88" height="63.56" transform="translate(528.65 71.57) rotate(180)"/>
        <rect class="cls-2" x="289.94" y="85.84" width="30.16" height="16.5" transform="translate(610.05 188.18) rotate(180)"/>
        <rect class="cls-2" x="297.51" y="71.79" width="15.03" height="8.22" transform="translate(610.05 151.8) rotate(180)"/>
        <rect class="cls-2" x="297.51" y="76.3" width="15.03" height="8.22" transform="translate(610.05 160.83) rotate(180)"/>
        <rect class="cls-2" x="297.56" y="79.86" width="15.03" height="8.22" transform="translate(610.15 167.94) rotate(180)"/>
        <rect class="cls-5" x="299.67" y="88.79" width="10.81" height="6.81" transform="translate(610.15 184.39) rotate(180)"/>
      </g>
      <g>
        <rect class="cls-4" x="32.25" y="104.34" width="247.6" height="90.41"/>
        <rect class="cls-5" x="258.24" y="161.23" width="43.23" height="4.01" transform="translate(443.08 -116.62) rotate(90)"/>
        <g>
          <rect class="cls-3" x="279.22" y="130.99" width="1.27" height="5.34" transform="translate(413.51 -146.2) rotate(90)"/>
          <rect class="cls-3" x="279.22" y="109.63" width="1.27" height="5.34" transform="translate(392.15 -167.56) rotate(90)"/>
          <rect class="cls-5" x="269.81" y="120.98" width="20.09" height="4" transform="translate(156.88 402.83) rotate(-90)"/>
        </g>
        <rect class="cls-2" x="156.15" y="141.92" width="27.58" height="50.82"/>
        <rect class="cls-2" x="185.67" y="147.52" width="8.62" height="15.25"/>
        <rect class="cls-2" x="185.67" y="172.01" width="8.62" height="15.25"/>
        <rect class="cls-2" x="145.59" y="147.52" width="8.62" height="15.25"/>
        <rect class="cls-2" x="145.59" y="172.01" width="8.62" height="15.25"/>
        <rect class="cls-2" x="165.63" y="128.05" width="8.62" height="15.25" transform="translate(34.27 305.61) rotate(-90)"/>
        <rect class="cls-2" x="62.93" y="148.7" width="17.4" height="70.94" transform="translate(255.8 112.54) rotate(90)"/>
        <rect class="cls-2" x="82.84" y="155.05" width="59.85" height="15.8" transform="translate(275.71 50.18) rotate(90)"/>
        <rect class="cls-2" x="224.99" y="140.02" width="29.01" height="76.69" transform="translate(417.87 -61.13) rotate(90)"/>
        <rect class="cls-2" x="118.93" y="139.8" width="16.05" height="9.1" transform="translate(271.31 17.4) rotate(90)"/>
        <rect class="cls-2" x="118.93" y="158.32" width="16.05" height="9.1" transform="translate(289.83 35.92) rotate(90)"/>
        <rect class="cls-2" x="118.93" y="176.84" width="16.05" height="9.1" transform="translate(308.35 54.44) rotate(90)"/>
        <rect class="cls-2" x="34.25" y="133.02" width="17.4" height="59.9"/>
        <rect class="cls-2" x="228.24" y="86.88" width="11.9" height="50.37" transform="translate(122.12 346.24) rotate(-90)"/>
        <rect class="cls-5" x="233.44" y="91.61" width="1.48" height="41.37" transform="translate(121.89 346.48) rotate(-90)"/>
        <rect class="cls-5" x="103.45" y="147.64" width="18.62" height="11.65" transform="translate(266.23 40.7) rotate(90)"/>
        <rect class="cls-5" x="38.48" y="149.44" width="14.02" height="8.05" transform="translate(198.96 107.97) rotate(90)"/>
        <rect class="cls-5" x="68.06" y="170.44" width="21.84" height="22.75" transform="translate(260.8 102.84) rotate(90)"/>
        <rect class="cls-2" x="64.41" y="106.11" width="59.85" height="9.67" transform="translate(188.66 221.9) rotate(180)"/>
        <g>
          <rect class="cls-3" x="158.62" y="101.67" width="1.27" height="5.33" transform="translate(318.51 208.67) rotate(-180)"/>
          <rect class="cls-3" x="206.54" y="101.67" width="1.27" height="5.33" transform="translate(414.34 208.67) rotate(-180)"/>
          <rect class="cls-5" x="159.91" y="102.34" width="46.63" height="3.99"/>
        </g>
      </g>
      <g>
        <rect class="cls-4" x="2.01" y="104.34" width="30.25" height="90.41"/>
        <rect class="cls-5" x="-19.61" y="145.89" width="43.23" height="4.01" transform="translate(149.9 145.89) rotate(90)"/>
        <g>
          <rect x="31.62" y="128.07" width="1.27" height="5.34" transform="translate(162.99 98.49) rotate(90)"/>
          <rect x="31.62" y="106.71" width="1.27" height="5.34" transform="translate(141.63 77.13) rotate(90)"/>
          <rect class="cls-5" x="22.21" y="118.06" width="20.09" height="4" transform="translate(-87.81 152.31) rotate(-90)"/>
        </g>
        <rect class="cls-2" x="12.85" y="149.93" width="17.4" height="17.4"/>
        <rect class="cls-2" x="10.5" y="169.67" width="19.75" height="19.75"/>
      </g>
      <g>
        <polygon class="cls-4" points="86.37 75 86.37 2 2.01 2 2.01 104.34 86.37 104.34 130.4 104.34 130.4 75 86.37 75"/>
        <rect class="cls-5" x="22.37" width="43.83" height="4.01"/>
        <g>
          <rect x="129.77" y="97.68" width="1.27" height="5.34" transform="translate(230.75 -30.05) rotate(90)"/>
          <rect x="129.77" y="76.32" width="1.27" height="5.34" transform="translate(209.39 -51.41) rotate(90)"/>
          <rect class="cls-5" x="120.36" y="87.67" width="20.09" height="4" transform="translate(40.73 220.07) rotate(-90)"/>
        </g>
        <rect class="cls-2" x="11.58" y="12.1" width="39.89" height="55.05" transform="translate(71.15 8.1) rotate(90)"/>
        <rect class="cls-2" x="4" y="7.72" width="10.59" height="10.59" transform="translate(22.31 3.71) rotate(90)"/>
        <rect class="cls-2" x="4" y="61.45" width="10.59" height="10.59" transform="translate(76.04 57.45) rotate(90)"/>
        <rect class="cls-2" x="25.96" y="64.93" width="15.44" height="59.37" transform="translate(128.3 60.93) rotate(90)"/>
      </g>
      <g>
        <rect class="cls-4" x="174.29" y="2" width="79.1" height="73"/>
        <rect class="cls-5" x="192.55" width="43.27" height="4.01"/>
        <g>
          <rect x="177.92" y="72.34" width="1.27" height="5.33" transform="translate(357.11 150.01) rotate(-180)"/>
          <rect x="199.3" y="72.34" width="1.27" height="5.33" transform="translate(399.86 150.01) rotate(-180)"/>
          <rect class="cls-5" x="179.19" y="73.01" width="20.11" height="3.99"/>
        </g>
        <rect class="cls-2" x="209.1" y="-7.5" width="30.78" height="53.8" transform="translate(243.89 -205.09) rotate(90)"/>
        <rect class="cls-2" x="240.79" y="39.78" width="10.59" height="10.59" transform="translate(291.17 -201.01) rotate(90)"/>
        <rect class="cls-2" x="220.21" y="41.83" width="15.44" height="46.91" transform="translate(293.22 -162.65) rotate(90)"/>
      </g>
      <g>
        <rect class="cls-4" x="130.4" y="2" width="43.89" height="73"/>
        <rect class="cls-5" x="140.51" width="23.67" height="4.01"/>
        <g>
          <rect x="148.57" y="72.34" width="1.27" height="5.33" transform="translate(298.4 150.01) rotate(-180)"/>
          <rect x="169.94" y="72.34" width="1.27" height="5.33" transform="translate(341.15 150.01) rotate(-180)"/>
          <rect class="cls-5" x="149.83" y="73.01" width="20.11" height="3.99"/>
        </g>
        <rect class="cls-2" x="132.4" y="53.64" width="15.47" height="19.36" transform="translate(280.27 126.65) rotate(-180)"/>
        <rect class="cls-2" x="132.4" y="30.11" width="40.03" height="2.47" transform="translate(304.83 62.68) rotate(-180)"/>
        <rect class="cls-2" x="132.4" y="15.96" width="11.18" height="2.47"/>
        <rect class="cls-2" x="132.4" y="36.18" width="21.11" height="12.62" transform="translate(285.9 84.98) rotate(-180)"/>
        <rect class="cls-2" x="142.68" y="13.76" width="6.88" height="6.88"/>
      </g>
      <g>
        <rect x="224.81" y="97.68" width="1.27" height="5.34" transform="translate(325.79 -125.09) rotate(90)"/>
        <rect x="224.81" y="76.32" width="1.27" height="5.34" transform="translate(304.43 -146.45) rotate(90)"/>
        <rect class="cls-5" x="215.39" y="87.67" width="20.09" height="4" transform="translate(135.77 315.11) rotate(-90)"/>
      </g>
      <g>
        <rect class="cls-4" x="86.37" y="2" width="44.03" height="73"/>
        <rect class="cls-5" x="96.55" width="23.67" height="4.01"/>
        <g>
          <rect x="89.72" y="72.34" width="1.27" height="5.33" transform="translate(180.72 150.01) rotate(-180)"/>
          <rect x="111.1" y="72.34" width="1.27" height="5.33" transform="translate(223.47 150.01) rotate(-180)"/>
          <rect class="cls-5" x="90.99" y="73.01" width="20.11" height="3.99"/>
        </g>
        <rect class="cls-2" x="112.92" y="53.64" width="15.47" height="19.36"/>
        <rect class="cls-2" x="88.37" y="30.1" width="40.03" height="2.47"/>
        <rect class="cls-2" x="117.22" y="15.96" width="11.18" height="2.47" transform="translate(245.62 34.39) rotate(180)"/>
        <rect class="cls-2" x="107.29" y="36.18" width="21.11" height="12.62"/>
        <rect class="cls-2" x="111.25" y="13.76" width="6.88" height="6.88" transform="translate(229.37 34.39) rotate(180)"/>
      </g>
    </g>
  </g>
</svg>