<?xml version="1.0" encoding="UTF-8"?>
<svg id="Layer_2" xmlns="http://www.w3.org/2000/svg" viewBox="0 0 372.89 150.82">
  <defs>
    <style>
      .cls-1 {
        fill: #bcbec0;
      }

      .cls-2 {
        fill: #231f20;
      }

      .cls-3 {
        fill: #d1d3d4;
        stroke: #231f20;
        stroke-miterlimit: 10;
        stroke-width: 4px;
      }

      .cls-4 {
        fill: #a7a9ac;
      }
    </style>
  </defs>
  <g id="Layer_1-2" data-name="Layer_1">
    <g>
      <g>
        <polygon class="cls-3" points="297.64 61.86 297.64 2 216.4 2 216.4 61.86 216.4 116.23 105.79 116.23 105.79 148.82 216.4 148.82 370.89 148.82 370.89 61.86 297.64 61.86"/>
        <rect class="cls-4" x="272.5" y="27.15" width="50.3" height="4.01" transform="translate(326.8 -268.5) rotate(90)"/>
        <rect class="cls-4" x="348.26" y="94.25" width="45.25" height="4.01" transform="translate(467.14 -274.64) rotate(90)"/>
        <g>
          <rect class="cls-2" x="364.06" y="59.19" width="1.27" height="5.33"/>
          <rect class="cls-2" x="342.68" y="59.19" width="1.27" height="5.33"/>
          <rect class="cls-4" x="343.95" y="59.86" width="20.11" height="3.99" transform="translate(708.01 123.71) rotate(180)"/>
        </g>
        <rect class="cls-4" x="242.46" y="47.41" width="52" height="16.44"/>
        <rect class="cls-4" x="242.46" y="4" width="52" height="16.44"/>
        <rect class="cls-4" x="278.38" y="20.45" width="16.08" height="26.97"/>
        <rect class="cls-1" x="220.24" y="4" width="20.96" height="20.96"/>
        <rect class="cls-1" x="246.94" y="63.85" width="10.48" height="10.48"/>
        <rect class="cls-1" x="263.81" y="63.85" width="10.48" height="10.48"/>
        <rect class="cls-1" x="280.68" y="63.85" width="10.48" height="10.48"/>
        <rect class="cls-1" x="247.72" y="88.34" width="10.89" height="10.89"/>
        <rect class="cls-1" x="233.06" y="94.78" width="10.89" height="10.89" transform="translate(-1.01 198) rotate(-45)"/>
        <rect class="cls-1" x="262.13" y="94.78" width="10.89" height="10.89" transform="translate(149.24 -159.85) rotate(45)"/>
        <rect class="cls-1" x="247.47" y="129.22" width="10.89" height="10.89" transform="translate(505.82 269.33) rotate(180)"/>
        <rect class="cls-1" x="262.13" y="122.78" width="10.89" height="10.89" transform="translate(547.45 29.68) rotate(135)"/>
        <rect class="cls-1" x="233.06" y="122.78" width="10.89" height="10.89" transform="translate(316.48 387.53) rotate(-135)"/>
        <rect class="cls-1" x="227.7" y="108.61" width="10.89" height="10.89" transform="translate(119.08 347.2) rotate(-90)"/>
        <rect class="cls-1" x="267.58" y="108.61" width="10.89" height="10.89" transform="translate(158.97 387.08) rotate(-90)"/>
        <circle class="cls-4" cx="253.17" cy="114.06" r="18.41"/>
        <rect class="cls-1" x="294.24" y="118.22" width="64.44" height="24.6"/>
        <rect class="cls-1" x="335.35" y="100.47" width="23.33" height="24.6"/>
        <rect class="cls-1" x="295.64" y="63.85" width="46.3" height="10.48"/>
      </g>
      <g>
        <rect class="cls-3" x="171.92" y="2" width="44.48" height="54.81"/>
        <g>
          <rect class="cls-2" x="215.76" y="28.14" width="1.27" height="5.34" transform="translate(185.59 247.2) rotate(-90)"/>
          <rect class="cls-2" x="215.76" y="49.5" width="1.27" height="5.34" transform="translate(164.23 268.56) rotate(-90)"/>
          <rect class="cls-4" x="206.35" y="39.49" width="20.09" height="4" transform="translate(257.88 -174.91) rotate(90)"/>
        </g>
        <rect class="cls-1" x="173.91" y="27.93" width="20.24" height="17.78"/>
        <rect class="cls-1" x="173.91" y="8.74" width="12.09" height="17.78"/>
      </g>
      <g>
        <rect class="cls-3" x="155.61" y="56.82" width="60.79" height="59.41"/>
        <g>
          <rect class="cls-2" x="180.41" y="113.56" width="1.27" height="5.33"/>
          <rect class="cls-2" x="159.04" y="113.56" width="1.27" height="5.33"/>
          <rect class="cls-4" x="160.31" y="114.23" width="20.11" height="3.99" transform="translate(340.72 232.45) rotate(180)"/>
        </g>
        <rect class="cls-1" x="198.53" y="87.91" width="15.86" height="26.32"/>
        <rect class="cls-1" x="187.13" y="85.6" width="27.27" height="2.31"/>
        <rect class="cls-1" x="203.75" y="71.05" width="10.68" height="2.31"/>
        <rect class="cls-1" x="173.73" y="72.21" width="29.1" height="2.31" transform="translate(114.92 261.65) rotate(-90)"/>
        <rect class="cls-1" x="161.68" y="63.04" width="21.11" height="12.67" transform="translate(102.86 241.61) rotate(-90)"/>
        <rect class="cls-1" x="200.5" y="68.97" width="6.59" height="6.48"/>
      </g>
      <g>
        <polygon class="cls-3" points="83.25 2 83.25 56.82 83.25 116.23 155.61 116.23 155.61 56.82 171.92 56.82 171.92 2 83.25 2"/>
        <rect class="cls-4" x="97.23" width="44.03" height="4.01" transform="translate(238.49 4.01) rotate(180)"/>
        <g>
          <rect class="cls-2" x="150.35" y="113.56" width="1.27" height="5.33"/>
          <rect class="cls-2" x="128.98" y="113.56" width="1.27" height="5.33"/>
          <rect class="cls-4" x="130.25" y="114.23" width="20.11" height="3.99" transform="translate(280.6 232.45) rotate(180)"/>
        </g>
        <rect class="cls-1" x="155.63" y="4.01" width="14.27" height="50.79"/>
        <rect class="cls-1" x="99.28" y="85.87" width="14.27" height="42.34" transform="translate(213.46 .62) rotate(90)"/>
        <rect class="cls-1" x="100.26" y="44.11" width="25.04" height="55.05" transform="translate(184.41 -41.14) rotate(90)"/>
        <rect class="cls-1" x="100.26" y="-6.26" width="25.04" height="55.05" transform="translate(134.04 -91.51) rotate(90)"/>
        <rect class="cls-1" x="85.25" y="39.35" width="14.19" height="14.19" transform="translate(138.79 -45.89) rotate(90)"/>
      </g>
      <g>
        <polygon class="cls-3" points="83.25 116.23 83.25 45.71 2.01 45.71 2.01 148.82 83.25 148.82 105.79 148.82 105.79 116.23 83.25 116.23"/>
        <rect class="cls-4" x="-19.44" y="94.85" width="42.89" height="4.01" transform="translate(-94.85 98.86) rotate(-90)"/>
        <g>
          <rect class="cls-2" x="105.16" y="140.68" width="1.27" height="5.34" transform="translate(249.14 37.56) rotate(90)"/>
          <rect class="cls-2" x="105.16" y="119.32" width="1.27" height="5.34" transform="translate(227.78 16.2) rotate(90)"/>
          <rect class="cls-4" x="95.74" y="130.67" width="20.09" height="4" transform="translate(-26.88 238.46) rotate(-90)"/>
        </g>
        <rect class="cls-1" x="11.59" y="76.76" width="39.89" height="55.05" transform="translate(135.82 72.74) rotate(90)"/>
        <rect class="cls-1" x="4.01" y="125.56" width="10.59" height="10.59" transform="translate(140.16 121.55) rotate(90)"/>
        <rect class="cls-1" x="4.01" y="72.37" width="10.59" height="10.59" transform="translate(86.98 68.36) rotate(90)"/>
        <rect class="cls-1" x="21.07" y="30.65" width="17.34" height="51.45" transform="translate(86.11 26.64) rotate(90)"/>
      </g>
      <g>
        <rect class="cls-3" x="2.01" y="2" width="81.25" height="43.7"/>
        <rect class="cls-4" x="-10.08" y="22.34" width="24.17" height="4.01" transform="translate(-22.34 26.35) rotate(-90)"/>
        <g>
          <rect class="cls-2" x="79.26" y="43.04" width="1.27" height="5.33"/>
          <rect class="cls-2" x="57.89" y="43.04" width="1.27" height="5.33"/>
          <rect class="cls-4" x="59.16" y="43.71" width="20.11" height="3.99" transform="translate(138.42 91.42) rotate(180)"/>
        </g>
        <rect class="cls-1" x="59.65" y="-.19" width="17.34" height="25.72" transform="translate(81 -55.64) rotate(90)"/>
        <rect class="cls-1" x="11.15" y="22.63" width="39.7" height="2.47" transform="translate(54.86 -7.14) rotate(90)"/>
        <rect class="cls-1" x="11.38" y="8.36" width="11.18" height="2.47" transform="translate(26.57 -7.37) rotate(90)"/>
        <rect class="cls-1" x="33.23" y="8.25" width="21.11" height="12.62" transform="translate(58.34 -29.22) rotate(90)"/>
        <rect class="cls-1" x="13.53" y="14.29" width="6.88" height="6.88" transform="translate(34.7 .75) rotate(90)"/>
      </g>
    </g>
  </g>
</svg>