<?xml version="1.0" encoding="UTF-8"?>
<svg id="Layer_2" xmlns="http://www.w3.org/2000/svg" viewBox="0 0 464.33 224.45">
  <defs>
    <style>
      .cls-1 {
        fill: #bcbec0;
      }

      .cls-2 {
        fill: #d1d3d4;
        stroke: #231f20;
        stroke-miterlimit: 10;
        stroke-width: 4px;
      }

      .cls-3 {
        fill: #a7a9ac;
      }

      .cls-4 {
        fill: #ccc;
      }
    </style>
  </defs>
  <g id="Layer_1-2" data-name="Layer_1">
    <g>
      <polyline class="cls-2" points="279.07 123.34 284.86 123.34 284.86 92.89 66.69 92.89 66.69 123.34 212.58 123.34"/>
      <g>
        <polyline class="cls-2" points="284.86 222.45 319.11 222.45 427.41 222.45 461.66 222.45 461.66 148.67 427.41 148.67 427.41 123.34 284.86 123.34"/>
        <rect class="cls-3" x="448.99" y="202.78" width="25.34" height="4.01" transform="translate(666.45 -256.87) rotate(90)"/>
        <g>
          <rect x="461.03" y="185.77" width="1.27" height="5.34" transform="translate(650.1 -273.22) rotate(90)"/>
          <rect x="461.03" y="151.53" width="1.27" height="5.34" transform="translate(615.86 -307.47) rotate(90)"/>
          <rect class="cls-3" x="445.17" y="169.32" width="32.98" height="4" transform="translate(290.34 632.98) rotate(-90)"/>
        </g>
        <rect class="cls-1" x="300.03" y="161.56" width="23.27" height="42.89"/>
        <rect class="cls-1" x="324.82" y="166.29" width="7.28" height="12.87"/>
        <rect class="cls-1" x="324.82" y="186.96" width="7.28" height="12.87"/>
        <rect class="cls-1" x="291.12" y="166.29" width="7.28" height="12.87"/>
        <rect class="cls-1" x="291.12" y="186.96" width="7.28" height="12.87"/>
        <rect class="cls-1" x="308.02" y="150.07" width="7.28" height="12.87" transform="translate(155.16 468.17) rotate(-90)"/>
        <rect class="cls-1" x="308.02" y="203.39" width="7.28" height="12.87" transform="translate(101.84 521.49) rotate(-90)"/>
        <rect class="cls-4" x="346.63" y="140.13" width="77.11" height="56.1"/>
        <rect class="cls-1" x="350.08" y="126" width="70.21" height="26.86"/>
        <rect class="cls-1" x="350.64" y="206.22" width="70.21" height="9.98"/>
        <rect class="cls-3" x="363.68" y="209.82" width="44.14" height="2.77"/>
        <circle class="cls-1" cx="385.19" cy="172.73" r="10.78"/>
      </g>
      <g>
        <polygon class="cls-2" points="368.48 77.56 368.48 2 284.86 2 284.86 77.56 284.86 92.89 284.86 123.34 427.41 123.34 427.41 77.56 368.48 77.56"/>
        <rect class="cls-3" x="304.03" width="45.28" height="4.01" transform="translate(653.34 4.01) rotate(180)"/>
        <g>
          <rect x="284.22" y="115.23" width="1.27" height="5.34" transform="translate(402.76 -166.96) rotate(90)"/>
          <rect x="284.22" y="93.87" width="1.27" height="5.34" transform="translate(381.4 -188.31) rotate(90)"/>
          <rect class="cls-3" x="274.81" y="105.22" width="20.09" height="4" transform="translate(177.63 392.08) rotate(-90)"/>
        </g>
        <rect class="cls-1" x="325.3" y="105.19" width="100.11" height="16.03"/>
        <rect class="cls-1" x="409.38" y="79.56" width="16.03" height="25.64"/>
        <rect class="cls-1" x="304.03" y="19.71" width="62.42" height="45.26"/>
        <rect class="cls-1" x="286.86" y="12.82" width="5.41" height="59.03"/>
        <rect class="cls-3" x="288.49" y="19.29" width="2.15" height="46.09"/>
        <rect class="cls-1" x="354.28" y="5.33" width="12.17" height="12.17"/>
        <rect class="cls-1" x="354.28" y="67.39" width="12.17" height="12.17"/>
      </g>
      <g>
        <rect class="cls-2" x="223.92" y="2" width="60.94" height="90.89"/>
        <rect class="cls-3" x="237.19" width="34.4" height="4.01" transform="translate(508.78 4.01) rotate(180)"/>
        <g>
          <rect x="229.5" y="90.23" width="1.27" height="5.33" transform="translate(460.27 185.79) rotate(-180)"/>
          <rect x="250.88" y="90.23" width="1.27" height="5.33" transform="translate(503.02 185.79) rotate(-180)"/>
          <rect class="cls-3" x="230.77" y="90.9" width="20.11" height="3.99"/>
        </g>
        <rect class="cls-1" x="226.04" y="4.01" width="24.84" height="54.88"/>
        <rect class="cls-1" x="272.41" y="4.01" width="10.45" height="67.03"/>
        <rect class="cls-1" x="254.39" y="4.01" width="13.49" height="13.49"/>
        <rect class="cls-1" x="253.3" y="78" width="29.56" height="12.82"/>
      </g>
      <g>
        <rect class="cls-2" x="140.3" y="2" width="83.62" height="90.89"/>
        <rect class="cls-3" x="163.1" width="45.28" height="4.01" transform="translate(371.48 4.01) rotate(180)"/>
        <g>
          <rect x="145.43" y="90.23" width="1.27" height="5.33" transform="translate(292.14 185.79) rotate(-180)"/>
          <rect x="166.81" y="90.23" width="1.27" height="5.33" transform="translate(334.89 185.79) rotate(-180)"/>
          <rect class="cls-3" x="146.7" y="90.9" width="20.11" height="3.99"/>
        </g>
        <rect class="cls-1" x="156.38" y="19.54" width="61.34" height="30.27" transform="translate(221.73 -152.38) rotate(90)"/>
        <rect class="cls-1" x="204.12" y="4.01" width="15.65" height="15.65" transform="translate(223.78 -200.11) rotate(90)"/>
        <rect class="cls-1" x="119.69" y="26.51" width="60.66" height="15.65" transform="translate(184.36 -115.68) rotate(90)"/>
        <rect class="cls-1" x="183.64" y="68.94" width="6.82" height="37.09" transform="translate(274.54 -99.57) rotate(90)"/>
        <rect class="cls-3" x="186.31" y="71.94" width="1.48" height="31.09" transform="translate(274.54 -99.57) rotate(90)"/>
      </g>
      <g>
        <rect class="cls-2" x="99.16" y="2" width="41.14" height="90.89"/>
        <g>
          <rect x="112.63" y="90.23" width="1.27" height="5.33" transform="translate(226.53 185.79) rotate(-180)"/>
          <rect x="134.01" y="90.23" width="1.27" height="5.33" transform="translate(269.28 185.79) rotate(-180)"/>
          <rect class="cls-3" x="113.9" y="90.9" width="20.11" height="3.99"/>
        </g>
        <rect class="cls-1" x="101.15" y="52.48" width="17.34" height="25.72" transform="translate(219.64 130.69) rotate(-180)"/>
        <rect class="cls-1" x="101.15" y="26.79" width="37.14" height="2.47" transform="translate(239.44 56.06) rotate(-180)"/>
        <rect class="cls-1" x="101.15" y="14.29" width="11.18" height="2.47"/>
        <rect class="cls-1" x="101.15" y="34.5" width="21.11" height="12.62" transform="translate(223.41 81.61) rotate(-180)"/>
        <rect class="cls-1" x="111.43" y="12.09" width="6.88" height="6.88"/>
      </g>
      <g>
        <polygon class="cls-2" points="2.01 2 2.01 76 66.69 76 66.69 92.89 99.16 92.89 99.16 76 99.16 2 2.01 2"/>
        <rect class="cls-3" x="-20.62" y="29.28" width="45.25" height="4.01" transform="translate(33.29 29.28) rotate(90)"/>
        <g>
          <rect x="71.57" y="90.19" width="1.27" height="5.33" transform="translate(144.4 185.71) rotate(-180)"/>
          <rect x="92.94" y="90.19" width="1.27" height="5.33" transform="translate(187.15 185.71) rotate(-180)"/>
          <rect class="cls-3" x="72.83" y="90.86" width="20.11" height="3.99"/>
        </g>
        <rect class="cls-1" x="4.01" y="7.71" width="60.4" height="27.33"/>
        <rect class="cls-1" x="4.01" y="58.45" width="64.1" height="15.56"/>
        <rect class="cls-1" x="83.55" y="3.93" width="13.57" height="34.02"/>
        <rect class="cls-1" x="70.81" y="15.02" width="9.28" height="9.28" transform="translate(14.49 -28.96) rotate(23.97)"/>
        <rect class="cls-1" x="5.77" y="41.97" width="9.28" height="9.28"/>
      </g>
      <g>
        <rect class="cls-2" x="2.01" y="76" width="64.68" height="47.33"/>
        <g>
          <rect x="39.91" y="120.67" width="1.27" height="5.33" transform="translate(81.08 246.68) rotate(-180)"/>
          <rect x="61.28" y="120.67" width="1.27" height="5.33" transform="translate(123.83 246.68) rotate(-180)"/>
          <rect class="cls-3" x="41.18" y="121.34" width="20.11" height="3.99"/>
        </g>
        <rect class="cls-1" x="25.9" y="77.97" width="18.73" height="17.59"/>
        <rect class="cls-1" x="45.95" y="77.97" width="18.73" height="12.22"/>
        <rect class="cls-1" x="4.01" y="77.97" width="21.89" height="12.22"/>
        <rect class="cls-3" x="28.64" y="78.99" width="13.25" height="12.44"/>
      </g>
      <g>
        <rect class="cls-2" x="368.48" y="2" width="58.94" height="75.56"/>
        <rect class="cls-3" x="415.63" y="19.99" width="23.57" height="4.01" transform="translate(449.41 -405.42) rotate(90)"/>
        <g>
          <rect x="373.33" y="74.89" width="1.27" height="5.33" transform="translate(747.92 155.12) rotate(-180)"/>
          <rect x="394.7" y="74.89" width="1.27" height="5.33" transform="translate(790.67 155.12) rotate(-180)"/>
          <rect class="cls-3" x="374.59" y="75.56" width="20.11" height="3.99"/>
        </g>
        <rect class="cls-1" x="408.01" y="42.3" width="17.34" height="33.26" transform="translate(833.37 117.86) rotate(-180)"/>
        <rect class="cls-1" x="393.37" y="39.83" width="32.03" height="2.47" transform="translate(818.78 82.13) rotate(-180)"/>
        <rect class="cls-1" x="405.86" y="8.47" width="11.18" height="2.47" transform="translate(421.15 -401.75) rotate(90)"/>
        <rect class="cls-1" x="371.62" y="8.35" width="21.11" height="12.62" transform="translate(367.51 396.83) rotate(-90)"/>
        <rect class="cls-1" x="408.01" y="14.39" width="6.88" height="6.88" transform="translate(429.28 -393.63) rotate(90)"/>
        <rect class="cls-1" x="376.87" y="20.71" width="35.67" height="2.47" transform="translate(416.65 -372.76) rotate(90)"/>
      </g>
      <g>
        <polyline class="cls-2" points="284.86 222.45 66.69 222.45 66.69 123.34 284.86 123.34"/>
        <rect class="cls-3" x="19.04" y="170.94" width="95.3" height="4.01" transform="translate(239.63 106.26) rotate(90)"/>
        <g>
          <rect x="206.86" y="120.67" width="1.27" height="5.33" transform="translate(414.98 246.68) rotate(-180)"/>
          <rect x="274.74" y="120.67" width="1.27" height="5.33" transform="translate(550.75 246.68) rotate(-180)"/>
          <rect class="cls-3" x="208.12" y="121.34" width="66.61" height="3.99"/>
        </g>
        <rect class="cls-1" x="116.4" y="136.18" width="9.21" height="9.21"/>
        <rect class="cls-1" x="103.99" y="141.64" width="9.21" height="9.21" transform="translate(-71.6 119.62) rotate(-45)"/>
        <rect class="cls-1" x="128.59" y="141.64" width="9.21" height="9.21" transform="translate(142.42 -51.35) rotate(45)"/>
        <rect class="cls-1" x="116.18" y="170.78" width="9.21" height="9.21" transform="translate(241.57 350.77) rotate(180)"/>
        <rect class="cls-1" x="128.59" y="165.32" width="9.21" height="9.21" transform="translate(347.54 195.91) rotate(135)"/>
        <rect class="cls-1" x="103.99" y="165.32" width="9.21" height="9.21" transform="translate(65.22 366.88) rotate(-135)"/>
        <rect class="cls-1" x="99.45" y="153.34" width="9.21" height="9.21" transform="translate(-53.89 262.01) rotate(-90)"/>
        <rect class="cls-1" x="133.2" y="153.34" width="9.21" height="9.21" transform="translate(-20.14 295.75) rotate(-90)"/>
        <circle class="cls-3" cx="121" cy="157.95" r="15.58"/>
        <rect class="cls-1" x="70.78" y="193.85" width="28.67" height="26.59"/>
        <rect class="cls-1" x="99.45" y="202.6" width="71.18" height="17.84"/>
        <rect class="cls-1" x="175.77" y="202.6" width="73.97" height="17.84"/>
        <rect class="cls-1" x="233.3" y="150.67" width="16.44" height="52.1"/>
        <rect class="cls-1" x="250.88" y="150.67" width="8.22" height="69.77"/>
        <rect class="cls-1" x="263.27" y="158" width="9.88" height="9.88"/>
        <rect class="cls-1" x="263.27" y="179.64" width="9.88" height="9.88"/>
        <rect class="cls-1" x="263.27" y="201.28" width="9.88" height="9.88"/>
        <rect class="cls-1" x="207.45" y="142.52" width="17.7" height="34" transform="translate(375.82 -56.78) rotate(90)"/>
        <rect class="cls-3" x="205.1" y="204.97" width="19.75" height="9.25"/>
        <rect class="cls-3" x="123.32" y="204.97" width="19.75" height="9.25"/>
        <rect class="cls-3" x="75.24" y="198.6" width="19.75" height="21.84"/>
        <rect class="cls-3" x="205.1" y="153.32" width="19.75" height="10.68"/>
        <rect class="cls-1" x="171.57" y="140.79" width="3.32" height="79.65"/>
      </g>
    </g>
  </g>
</svg>